<?xml version="1.0" encoding="utf-8"?>
<!-- Generator: Adobe Illustrator 24.2.3, SVG Export Plug-In . SVG Version: 6.00 Build 0)  -->
<svg version="1.1" id="Layer_1" xmlns="http://www.w3.org/2000/svg" xmlns:xlink="http://www.w3.org/1999/xlink" x="0px" y="0px"
	 viewBox="0 0 595.28 841.89" style="enable-background:new 0 0 595.28 841.89;" xml:space="preserve">
<style type="text/css">
	.st0{fill:#FFFFFF;}
</style>
<g>
	<path class="st0" d="M161.29,300.84c-0.91-2.2-1.82-4.41-2.69-6.5c-8.11,1.69-13.19,7.16-14.5,14.75
		c-1.27,7.3,0.4,14.62,5.92,20.22c2.56-2.88,5.2-5.85,7.84-8.83c0.72,0.3,1.45,0.61,2.31,0.97c-1.65,3.33-3.43,6.91-5.32,10.73
		c11.39,0.93,21.1-1.2,27.9-11.27c0.39-3.87,0.87-8.64,1.34-13.36c-5.98,1.65-11.2,3.1-17.13,4.73c1.43-2.18,2.49-3.8,3.55-5.41
		c-3.13,2.38-5.5,5.27-7.91,8.13c-1.6,1.9-3.26,3.76-4.9,5.64c3.45-6.26,5.75-12.71,3.48-19.93c1.37-0.22,2.95-0.11,4.07-0.74
		c1.05-0.6,2.16-1.95,2.22-3.03c0.05-0.84-1.47-2.49-2.29-2.49c-1.19,0-2.9,0.91-3.44,1.91
		C161.08,297.58,161.39,299.32,161.29,300.84z M471.28,319.88c-3.2-2.12-4.62-6.03-9.25-6.96c-5.38-1.08-10.46-3.6-15.88-5.58
		c-1.99,19.81,11.78,26.75,28.28,24.45c-1.74-3.62-3.44-7.17-5.24-10.91c1.33,0.29,2.16,0.48,3,0.66c2.45,2.67,4.9,5.34,7.31,7.97
		c10.52-15.88,7.83-28.77-8.89-35.33c-0.73,2.68-1.36,5.39-2.22,8.03C466.3,308.6,468.75,314.23,471.28,319.88z M272.08,555.77
		c-3.55-6.71-8.2-12.22-16.58-13.8c2.23-0.48,4.31-0.14,6.18-0.61c1.23-0.31,2.75-1.63,3.07-2.78c0.61-2.13-0.63-3.28-3.12-3.2
		c-4.31,0.14-8.63,0.04-12.94,0.07c-4.53,0.04-5.81,1.93-4.08,6.02c0.87,2.05,2.19,4.01,2.61,6.14c1.66,8.53,5.21,15.49,14.28,18.75
		c3.94,1.42,7.64,3.44,11.45,5.19c0.46-0.21,0.91-0.42,1.37-0.62c-0.77-5.08-1.54-10.16-2.33-15.28c1.19-0.27,2.54-0.28,3.52-0.87
		c1.2-0.72,2.86-1.9,2.89-2.91c0.02-0.98-1.61-2.53-2.81-2.9c-1.9-0.58-3.78-0.07-3.6,2.63C272.09,553,272.06,554.39,272.08,555.77z
		 M389.28,572.55c3.6,3.35,6.81,7.27,10.87,9.95c10.13,6.69,20.87,4.85,30.18-6.38c-2.75-1.63-5.53-3.22-8.26-4.89
		c-5.23-3.22-10.83-4.24-16.85-2.72c-5.35,1.35-10.69,2.76-16.04,4.15c9.48-4.49,18.95-8.98,27.64-13.1
		c0.66,0.95,1.11,2.4,2.07,2.84c3.74,1.74,7.52,3.54,11.49,4.65c11.04,3.1,22.8-3.83,25.62-14.52c-10.23-3.94-20.48-5.8-30.38,1.29
		c0.18-0.77,0.38-1.13,0.69-1.36c16-11.68,28.95-26.03,39.83-42.27c0.78-1.17,3.07-1.85,4.7-1.93c4.71-0.22,9.48,0.38,14.15-0.07
		c11.51-1.11,20.01-12.31,18.07-22.5c-17.59-2.17-26.5,8.74-34.2,21.81c26.35-46.35,34-94.83,20.79-146
		c0.03,2.89,0.78,5.77,1.39,8.67c4.79,22.91,5.3,45.95,0.81,68.89c-2.11,10.75-5.73,21.23-8.84,31.78
		c-4.42,15.03-12.28,28.49-21.14,41.35c-13.09,19.02-29.9,34.13-50.25,46.01c-24.9,14.53-51.16,19.01-79.37,13.45
		c-9.99-1.97-19.97-2.84-29.94-0.88c-9.89,1.95-19.72,3.39-29.87,3.15c-13.81-0.33-27.12-2.42-39.57-8.42
		c-6.52-3.14-13.22-6.1-19.24-10c-7.35-4.75-14.1-10.39-21.08-15.69c-2.7-2.05-2.6-4.7-1.61-7.57c1.09-3.16,2.24-6.31,3.05-9.54
		c3.01-12.12-4.92-23.42-17.8-25.44c-0.38,2.87-0.68,5.76-1.16,8.62c-0.34,2-1.92,4.41-1.23,5.86c2.38,4.94,5.32,9.66,8.44,14.21
		c2.33,3.39,5.25,6.4,7.91,9.58c-0.53,0.35-1.06,0.71-1.59,1.06c-18.39-17.43-31.29-38.34-40.79-61.24c1.9-2.06,6.4,0.88,5.99-3.55
		c-0.14-1.55-1.77-2.98-2.78-4.55c3.1-3.87,6.65-8.32,10.21-12.76c0.2,2.14,0.41,4.28,0.62,6.55c3.56,0,6.7-0.11,9.83,0.04
		c2.53,0.12,3.18-1.01,3.16-3.23c-0.02-2.16-0.9-2.9-3.09-2.88c-3.55,0.02-7.11-0.21-10.66-0.34c0.39-2.27,0.77-4.54,1.19-6.98
		c3.32,0,6.19-0.08,9.05,0.03c2.21,0.08,3.46-0.36,3.51-2.93c0.05-2.75-1.25-3.37-3.68-3.18c-1.43,0.11-2.87,0.04-4.31,0.04
		c-6.42-0.01-7.27-0.69-8.82-7.38c5.48,0,10.88,0,16.38,0c0-2.24,0-4.06,0-6.01c-5.15,0-9.89,0.15-14.62-0.04
		c-5.32-0.22-9.47,0.98-10.89,6.66c-0.19,0.77-0.79,1.49-1.34,2.11c-4.95,5.6-5.45,12.04-3.83,18.88c1.09,4.58,2.26,9.14,3.39,13.71
		c-1.7-1.31-2.66-2.87-3.09-4.55c-1.83-7.28-3.75-14.55-5.17-21.91c-1.49-7.71-2.78-15.49-3.51-23.3
		c-0.54-5.75-0.35-11.61,0.08-17.38c0.78-10.58,1.93-21.13,3.07-31.68c0.15-1.41,1.16-2.73,1.78-4.08c2.2-0.58,4.38-1.19,6.59-1.73
		c4.65-1.14,8.98-2.31,12.9-5.68c6.2-5.34,8.56-13.68,5.1-23.62c-0.52,0.17-1.07,0.3-1.56,0.53c-0.64,0.3-1.21,0.79-1.87,1.01
		c-9.39,3.1-14.57,9.62-16.88,18.81c-0.93,3.7-2.75,7.19-4.17,10.78c0-1.98,0-3.96,0-5.94c-8.55,26.92-9.61,54.4-4.02,81.62
		c9.1,44.26,29.21,82.79,67.38,110.87c-1.21,0.01-2.16-0.19-2.94-0.66c-5.86-3.52-12.12-3.76-18.68-2.5
		c-2.71,0.52-5.51,0.56-8.26,0.94c-0.62,0.08-1.66,0.69-1.64,1c0.06,0.87,0.39,1.84,0.93,2.54c1.35,1.74,3.37,3.14,4.22,5.06
		c1.46,3.28,3.83,4.88,7.16,6.14c10.08,3.83,19.17,0.87,27.85-3.73c2.18-1.15,3.39-1.44,5.21-0.18c1.17,0.81,2.3,1.71,3.59,2.3
		c14.97,6.82,30.12,12.98,47.13,12.82c1.16-0.01,2.33,1.03,3.49,1.58c-4.98-0.25-9.95-0.63-14.93-0.72
		c-6.92-0.12-13.51,0.44-17.91,6.95c-1.7,2.51-4.5,4.31-7.33,6.92c3.21,1.18,6,1.86,8.42,3.16c7.53,4.06,14.29,2.13,20.86-2.07
		c1.82-1.16,4.03-2.18,5.15-3.84c2.22-3.3,3.81-6.99,5.66-10.52c5.38-0.38,10.77-0.77,15.93-1.13c-3.85,4.85-8.34,9.1-11,14.25
		c-2.6,5.06-4.51,10.96-1.12,16.85c0.9-1.42,1.56-2.94,1.46-4.42c-0.5-7.51,3.73-13.21,7.66-18.95c5.33-7.78,14.6-8.79,22.74-11.13
		c4.62-1.33,10.04-0.73,15-0.17c16.24,1.84,30.85,14.18,30.46,30.37c-0.03,1.31,0.5,2.63,0.76,3.94c3.78-5.85,1.74-11.39-1.08-16.39
		c-2.81-5-6.68-9.43-10.11-14.15c2.03,0,4.29,0.23,6.48-0.05c5.66-0.72,9.65,0.88,11.94,6.38c0.98,2.35,3.15,4.28,4.97,6.24
		c9.44,10.13,21.3,8.37,30.78,0.99c-6.78-7.96-14.18-15.01-26.14-14.3C376.68,575.39,382.98,573.96,389.28,572.55z M269.75,267.11
		c-4.44,4.49-4.39,4.45-0.68,8.32c0.57,0.6,1.04,2.21,0.69,2.57c-2.78,2.93-0.39,5.57,0.08,8.39c0.32,1.9-0.54,3.97-0.65,5.98
		c-0.07,1.28,0.29,2.59,0.46,3.88c1.72-0.56,3.58-0.87,5.12-1.74c2.05-1.15,3.65-3.47,5.78-4c16.1-4.04,32.48-5.49,49-3.17
		c9.33,1.31,19.46,0.25,27.06,7.63c0.48,0.46,2.1,0.41,2.72-0.02c0.59-0.42,0.84-1.68,0.76-2.53c-0.18-1.78-1.08-3.54-0.98-5.27
		c0.19-3.36,2.9-6.62,0.34-10.16c-0.11-0.15,1.24-1.57,2.11-2.06c2.95-1.63,3.04-3.44,0.65-5.59c-0.8-0.72-1.59-1.46-2.16-1.98
		c4.48-3.64,8.56-7.28,13-10.44c2.64-1.88,3.18-3.98,2.75-6.83c-0.22-1.44-0.04-2.96,0.1-4.44c0.47-5.08,1-10.15,1.55-15.54
		c-8.55,1.84-16.36,5.28-22.07,12.27c-0.52,0.63-0.18,2.04-0.01,3.05c0.2,1.21,1.12,2.46,0.91,3.55c-0.78,4.08,1,6.33,5.04,7.06
		c-2.26,4.59-5.49,5.63-9.84,3.44c-4.23-2.13-4.91-4.87-2.53-9.29c0.44-0.81,0.62-2.63,0.25-2.84c-2.53-1.41-1.61-2.98-0.91-4.96
		c0.52-1.46,0.72-3.61-0.02-4.81c-2.45-3.99-2.72-6.91,2.75-8.03c-1.53-1.92-2.84-3.56-4.01-5.03c-2.1,1.12-4.14,2.2-6.64,3.53
		c0.94,0.61,1.67,1.09,2.4,1.56c2.22,1.45,2.42,3.51,0.26,4.64c-4.16,2.18-4.37,5.44-3.39,9.29c-1.46,0.41-2.66,0.74-3.78,1.05
		c-0.74,9.97-1.76,11.49-7.51,11.34c-6.25-0.16-9.3-3.5-9.36-10.63c1.45-0.18,3.12-0.83,4.45-0.42c1.43,0.44,2.55,1.87,3.82,2.89
		c3.81-5.73,3.74-11.24,0.54-15.59c-3.02,0.28-5.5,0.7-7.95,0.59c-0.49-0.02-1.59-2.54-1.21-3.05c1.32-1.74,3.17-3.11,5.67-5.39
		c-0.87-0.93-1.99-3.2-3.7-3.75c-3.22-1.03-3.73-2.74-3.61-5.61c0.05-1.14-1.44-2.34-2.22-3.52c-1.11,1.17-2.4,2.23-3.29,3.54
		c-1.13,1.67-1.79,3.63-2.91,5.3c-1.12,1.67-2.56,3.13-3.85,4.68c2.85,1.71,4.5,3.05,5.48,4.76c0.36,0.64-1.05,3.12-1.32,3.07
		c-2.27-0.41-4.46-1.23-6.96-2.01c-3.25,3.31-3.23,10.8,0.67,16.97c0.36-0.52,0.55-1.11,0.95-1.32c1.48-0.77,3.29-2.24,4.48-1.88
		c1.17,0.35,2.37,2.59,2.42,4.03c0.18,4.81-4.88,8.05-11.18,7.53c-4.3-0.36-6.02-3.06-5.3-8.27c0.19-1.39,0.27-2.8,0.4-4.19
		c-2.21-0.34-5.84,2.87-4.7-2c0.79-3.39,0.11-5.45-2.99-7.31c-2.16-1.29-2.77-3.21,0.58-4.39c0.93-0.33,1.61-1.36,2.46-2.12
		c-2.9-1.3-5.16-2.31-6.88-3.09c-2.08,1.76-3.97,3.35-5.86,4.95c3.67-0.04,7.15,0.34,5.73,4.33c-1.33,3.73-2.55,6.98-0.57,10.7
		c0.19,0.35-0.13,1.35-0.47,1.5c-3.35,1.48-1.32,3.25-0.41,5.02c1.6,3.14,0.72,6.79-1.91,7.52c-2.02,0.56-4.14,0.8-6.22,1.15
		c-3.3,0.55-4.75-0.97-4.96-4.29c1.84-0.4,3.55-0.76,4.64-1c0.67-3.54,1.5-6.58,1.72-9.66c0.1-1.37-0.63-3.26-1.67-4.16
		c-3.66-3.16-7.31-6.57-11.58-8.75c-3.28-1.68-7.5-1.64-11.3-2.37c0.99,2.85,2.97,4.43,3.14,6.18c0.53,5.47,0.19,11.01,0.6,16.5
		c0.12,1.67,1.16,3.72,2.48,4.78C260.42,260.66,265.02,263.71,269.75,267.11z M277.53,369.65c-0.5,0.01-1,0.01-1.49,0.02
		c0,1.01-0.03,2.03,0.01,3.04c0.08,2.39-0.83,3.52-3.55,3.37c-19.8-1.07-39.6-2.06-59.4-3.01c-3.43-0.16-6.87-0.02-10.31-0.02
		c-0.03,0.56-0.06,1.12-0.09,1.69c11.91,0.87,23.81,1.89,35.73,2.57c12.15,0.69,24.32,1.06,36.77,1.58c0,2.71,0.24,5.34-0.05,7.92
		c-0.74,6.59-1.81,13.14-2.57,19.72c-0.75,6.51-0.91,13.11-1.96,19.57c-1.7,10.49-3.6,20.98-6.02,31.34
		c-2.26,9.67-4.35,19.58-12.09,27c-5.56,5.33-11.3,10.71-19.81,10.27c-8.71-0.45-17.58-0.8-26.02-2.71
		c-9.98-2.25-17.14-8.66-20.1-18.56c-1.78-5.96-3.04-12.07-4.6-18.09c-1.58-6.11-1.56-5.99,3.64-8.39c1.2-0.55,2.01-2.05,2.77-3.25
		c0.2-0.31-0.68-1.68-0.75-1.66c-1.26,0.41-2.47,0.94-3.67,1.5c-0.47,0.21-0.87,0.55-1.2,0.76c-2.69-3.81-3.8-7.41-0.93-11.51
		c0.67-0.95,0.3-3.24-0.46-4.35c-1.88-2.75-1.94-4.96-0.09-7.87c0.89-1.39,0.17-3.86-0.12-5.8c-0.3-2.01-1.45-4.01-1.24-5.91
		c0.07-0.66,3.08-1.33,4.79-1.43c2.32-0.14,3.9-0.43,3.82-3.22c-0.08-2.65-1.75-2.82-3.79-2.77c-0.86,0.02-1.72-0.07-2.58-0.1
		c-2.63-0.09-3.16-1.89-2.65-3.76c0.35-1.28,1.44-2.67,2.6-3.36c0.96-0.57,2.71,0.17,3.76-0.35c1.11-0.54,2.5-1.88,2.5-2.87
		c0-0.99-1.44-2.16-2.5-2.91c-0.57-0.4-1.68-0.13-2.54-0.09c-3.01,0.13-3.98-1.24-3.78-4.11c0.17-2.32,1.16-3.13,3.41-3.33
		c2.25-0.2,5.68,1.29,5.59-3.06c-0.1-4.34-3.59-2.4-5.75-2.97c-0.86-0.23-1.68-0.62-2.51-0.94c0.02-0.36,0.03-0.71,0.05-1.07
		c2.39-0.27,4.79-0.53,7.18-0.8c0-0.25,0-0.51,0-0.76c-2.36-0.64-4.71-1.29-7.02-1.92c0.49-2.35,0.87-4.16,1.29-6.13
		c1.4,0.07,2.53,0.12,3.65,0.19c19.51,1.16,39.01,2.38,58.53,3.48c9.76,0.55,19.52,1.07,29.29,1.26c4.33,0.08,8.8-0.23,12.95-1.3
		c1.68-0.43,3.67-3.34,3.68-5.13c0.01-1.4-2.61-3.22-4.45-4.1c-1.39-0.67-3.38-0.19-5.11-0.2c-3.49-0.01-6.98,0-11,0
		c1.7-5.32,2.93-9.53,4.39-13.67c2.27-6.42,4.78-12.77,7.01-19.2c1.85-5.33,1.19-6.45-4.11-8.32c-1.14-0.4-2.25-0.91-4.37-1.78
		c1.71-0.34,2.34-0.56,2.96-0.57c4.46-0.03,8.92-0.07,13.38,0.03c2.33,0.05,3.9-0.33,3.88-3.11c-0.02-2.89-1.82-3.01-4.02-2.96
		c-3.02,0.07-6.04,0.04-9.06,0.05c-6.38,0.01-6.38,0-8.46,5.55c-2.07-0.46-4.15-1.19-6.26-1.29c-1.12-0.05-2.97,0.73-3.35,1.6
		c-2.53,5.87-4.61,11.94-7.15,17.8c-1.27,2.92-3.57,5.43-4.78,8.37c-1.58,3.81-2.64,7.83-3.74,11.81c-1.06,3.85-3.53,4.84-7.38,4.33
		c-6.1-0.81-12.24-1.49-18.38-1.86c-13.61-0.83-27.24-1.43-40.86-2.15c-9.4-0.5-10.37,0.76-6.59,9.41c-2.72,0-5.27,0.1-7.82-0.03
		c-2.3-0.11-3.44,0.59-3.49,3.02c-0.05,2.43,1.02,3.42,3.35,3.06c2.6-0.41,5.16-1.04,8.1-1.65c-0.03-0.05,0.39,0.7,1.22,2.19
		c0.59-2.49,0.98-4.14,1.37-5.8c0.41-0.14,0.81-0.28,1.22-0.42c0.61,1.19,1.73,2.38,1.74,3.58c0.06,6.64-0.15,13.28-0.29,19.91
		c-0.02,0.83-0.27,1.65-0.3,2.47c-0.06,2.33-0.07,4.66-0.09,6.98c-0.02,2.2-0.02,4.4-0.05,6.6c-0.03,2.07-0.18,4.14-0.11,6.21
		c0.21,6.45,0.61,12.9,0.73,19.35c0.13,6.59-0.49,13.24,0.14,19.78c0.67,6.9,0.25,14.1,3.95,20.49c0.15,0.25-0.15,0.75-0.22,1.09
		c-6.64,0.99-7.9,1.74-6.56,4.28c0.75,1.42,3.44,1.86,5.63,2.93c0.49-2.58,0.74-3.86,1.15-6.02c0.68,1.39,1.01,1.96,1.24,2.57
		c1.36,3.65,2.06,7.72,4.23,10.83c1.98,2.83,5.26,5.16,8.46,6.75c8.09,4.01,16.35,7.52,25.78,7.96c9.42,0.44,18.4,0.48,25.84-6.41
		c2.96-2.74,6.7-4.74,9.41-7.66c1.81-1.96,2.52-4.92,3.52-7.5c2.43-6.3,5.24-12.52,6.95-19.01c1.57-5.98,1.86-12.28,2.82-18.42
		c0.21-1.34,0.89-2.61,1.28-3.94c0.42-1.45,0.96-2.91,1.08-4.4c0.49-6.24,0.7-12.5,1.28-18.73c1.07-11.56,2.37-23.11,3.48-34.67
		C277.72,374.25,277.53,371.94,277.53,369.65z M293.65,441.3c-4,0.73-8.45-0.96-9.25,4.09c-0.27,1.68-0.02,3.44-0.02,5.16
		c0.01,4.95,0.02,9.9,0.01,14.86c0,0.7-0.1,1.39-0.11,2.09c-0.03,1.92-0.04,3.84-0.06,5.76c0.67,0,1.92,0.06,1.93-0.01
		c0.22-1.92,0.7-3.91,0.36-5.76c-1.07-5.85-0.15-7.07,5.8-6.92c1.44,0.04,2.87,0.09,4.31,0.08c7.45-0.06,7.79,0.32,6.58,7.41
		c-0.09,0.54-0.4,1.12-0.3,1.62c0.24,1.14,0.62,2.27,1.08,3.34c0.05,0.11,1.39,0,1.48-0.24c0.42-1.12,0.86-2.32,0.85-3.5
		c-0.04-7.14-0.18-14.28-0.35-21.41c-0.02-0.69-0.36-1.47-0.8-2.01c-0.2-0.25-1.31-0.23-1.5,0.03c-0.42,0.56-0.71,1.35-0.7,2.04
		c0.04,2.61,0.41,5.23,0.24,7.82c-0.06,0.86-1.34,2.31-2.13,2.35c-4.55,0.22-9.13,0.11-13.6,0.11c-0.37-1.05-0.62-1.55-0.72-2.09
		c-1.45-8.06-1.11-8.61,7.26-8.47c3.45,0.06,5.2-0.82,5.95-4.32c0.7-3.27,7.92-4.73,10.05-2.24c-0.85,0.41-1.69,0.81-2.52,1.22
		c0.1,0.22,0.21,0.43,0.31,0.65c2.73-0.58,5.46-1.16,8.66-1.83c-1.54-2.11-2.9-3.98-4.24-5.83c7.12-7.02,7.58-15.93-1.45-27.43
		c-6.53-8.32-16.35-5.12-25.17-1.8c-0.31-1.46-0.62-2.9-1.15-5.36c-2.11,0.9-4.87,1.25-5.33,2.43c-1.82,4.66,2.7,4.09,5.39,4.83
		C274.66,423.64,279.59,434.79,293.65,441.3z M350.14,427.05c-0.37,0.13-0.74,0.27-1.11,0.4c-5.92-7.15-11.94-14.22-17.69-21.49
		c-2.06-2.61-4.29-3.4-7.54-2.52c0,12.59,0,25.05,0,37.49c2.28,0,4.24,0,6.87,0c0-7.9,0-15.59,0-23.27
		c0.52-0.27,1.04-0.54,1.56-0.82c0.35,0.76,0.56,1.63,1.08,2.27c5.17,6.34,10.53,12.54,15.55,18.99c2.23,2.87,4.6,3.81,8.1,2.61
		c0-12.37,0-24.61,0-36.81c-6.59-1.48-6.79-1.34-6.81,4.88C350.12,414.86,350.14,420.95,350.14,427.05z M131.87,326.91
		c0.18,0.38,0.36,0.76,0.54,1.15c-6,5.24-9.67,11.29-7.78,19.29c0.09,0.36-0.29,0.84-0.19,1.19c0.28,0.92,0.51,1.95,1.11,2.67
		c2.48,3.04,5.09,5.98,7.5,8.77c-2.34,1.26-4.33,2.03-5.85,3.33c-0.45,0.38,0.05,2.96,0.73,3.28c4.77,2.22,5.31-1.32,5.67-4.87
		c1.27,0.74,2.13,1.25,4.1,2.4c1.59-8.42,3.1-16.1,4.41-23.81c0.18-1.04-0.45-2.38-1.08-3.36c-1.96-3.05-4.1-5.98-6.45-9.38
		c2-0.47,3.06-0.72,3.45-0.81c-1.54-1.47-2.99-2.99-4.61-4.33c-0.78-0.65-1.85-1.36-2.8-1.38c-4.87-0.11-9.76-0.11-14.63,0.1
		 M159.15,509.03c0.32-0.65,0.63-1.3,0.95-1.96c-4.02-5.16-7.88-10.44-12.11-15.43c-3-3.53-6.68-6.08-11.87-6.11
		c-3.47-0.02-6.94-0.78-11.57-1.35c1.54,4.63,2.25,9.78,4.84,13.78c2.73,4.2,7.26,7.3,10.83,10.71c-0.63,0-2.33-0.4-3.65,0.12
		c-1.23,0.48-2.61,1.84-2.85,3.02c-0.15,0.74,1.58,2.5,2.66,2.67c2.52,0.41,5.19,0.39,7.72,0.03c1.14-0.16,2.84-1.47,2.97-2.42
		c0.36-2.6,1.9-2.68,3.92-2.69C153.72,509.38,156.43,509.16,159.15,509.03z M178.52,302.84c0.04,0.45,0.09,0.9,0.13,1.35
		c5.67,0.49,11.32,1.09,17,1.43c6.97,0.42,10.15-5.43,14.69-8.9c1.01-0.77,0.9-2.97,1.23-4.52c0.82-3.81,2.52-6.21,7.22-5.54
		c2.95,0.42,6.04,0.28,9.02-0.08c0.9-0.11,2.21-1.73,2.25-2.69c0.04-1-1.21-2.91-1.95-2.93c-6.11-0.24-12.23-0.14-18.62-0.14
		c0.37,4.08,0.27,7.16-4.78,4.93c-0.74-0.33-1.92,0.26-2.9,0.45C191.28,288.19,185.17,295.86,178.52,302.84z M157.27,387.97
		c1.04-3.61,2.41-6.37,2.51-9.17c0.14-4.1-0.55-8.24-1.16-12.32c-0.05-0.31-2.67-0.84-3.48-0.33c-1.95,1.2-3.29,3.44-5.31,4.42
		c-8.87,4.29-12.26,18.25-11.01,27.39c5.18-2.3,10.21-4.52,13.94-6.18c2.65,0.98,4.28,2.02,5.98,2.13
		c4.14,0.27,8.31,0.06,12.47,0.14c2.12,0.04,3.54-0.19,3.58-2.84c0.03-2.64-1.04-3.36-3.58-3.28
		C166.65,388.08,162.09,387.97,157.27,387.97z M240.16,574.31c-0.27-0.49-0.54-0.99-0.82-1.48c-5.73-1.69-11.4-3.6-17.21-4.97
		c-2.68-0.63-6.06-1.13-8.37-0.1c-5.35,2.38-10.25,5.73-16.13,9.16c2.73,1.48,5.75,2.21,7.25,4.09c4.4,5.5,15.15,6.88,21.73,3.12
		c3.31-1.89,6.38-4.21,9.48-6.42C237.53,576.67,238.81,575.44,240.16,574.31z M114.91,440.74c-6.64,20,12.19,31.68,27.09,30.02
		c-2.52-6.18-4.62-12.4-7.6-18.18c-1.56-3.02-4.25-5.97-7.21-7.69C123.64,442.84,119.25,442.14,114.91,440.74z M246.14,568.26
		c-0.41-6.12-0.17-12.38-1.46-18.33c-0.83-3.82-3.06-8.49-6.2-10.42c-4.47-2.74-10.35-3.32-15.79-4.86
		C222.28,551.31,226.31,558.96,246.14,568.26z M432.83,520.81c-18.9,1.33-27.35,15.67-20.11,35.35c5.5-5.04,11-9.5,15.74-14.61
		C433.85,535.76,431.53,528,432.83,520.81z M183.52,538.59c-1.54-1.63-2.8-3.05-4.16-4.37c-6.84-6.64-14.12-12.23-24.77-10.7
		c-2.76,0.4-5.63,0.08-8.44,0.18c-2.88,0.11-2.44,1.76-1.49,3.43c1.76,3.12,3.54,6.23,5.43,9.27c0.58,0.93,1.39,1.98,2.35,2.38
		c5.71,2.4,11.43,5.21,17.95,3.62C174.75,541.35,179.02,539.92,183.52,538.59z M446.28,538.26c19.46,9.54,34.36,3.57,37.77-13.05
		C467.9,519.25,456.49,526.74,446.28,538.26z M158.96,466.12c-1.27,5.27-3.13,10.37-3.61,15.58c-0.86,9.37,5.91,15.98,10.04,23.64
		c6.8-7.01,9.52-13.39,8.34-21.94c-0.54-3.94-1.74-8.3-4.15-11.34C167.49,469.43,163.27,468.4,158.96,466.12z M514.8,440.66
		c-17.07,3.22-23.84,14.75-26.31,29.93C508.95,469.57,519.07,459.32,514.8,440.66z M481.68,468.72c7.08-13.95,7.09-27.11-4.93-38.7
		C461.74,443.36,466.41,458.55,481.68,468.72z M218.45,555.93c0.28-5.15,0.92-9.69,0.7-14.19c-0.74-15.14-8.23-18.46-21.27-20.4
		C193.8,538.25,204.24,547.57,218.45,555.93z M406.77,534.73c-20.04,1.92-26.2,14.86-21.51,33.3
		C399.88,563,407.85,550.79,406.77,534.73z M356.18,571.22c17.75-4.93,26.77-14.7,27.17-29.12
		C364.32,540.32,355.07,550.98,356.18,571.22z M439.48,534.15c12.52-9.75,18.94-21.41,13.41-36.91
		C434.92,501.85,429.78,516.32,439.48,534.15z M469.29,466.48c-18.47,8.81-16.84,25.86-5.43,38.82
		C473.17,493.44,478.94,481.06,469.29,466.48z M392.66,429.3c6.34,0,12.35-0.15,18.34,0.06c3.39,0.12,4.31-1.14,3.79-4.19
		c-1.35-7.88-7.65-12.69-16.25-12.26c-7.64,0.38-13.11,5.82-13.64,13.53c-0.45,6.55,4.12,12.92,10.46,14.59
		c7.09,1.86,14.15-0.78,16.9-6.44c-2.44-1.24-4.47-1.5-7,0.4C400.15,438.81,393.75,436.15,392.66,429.3z M145.91,427.02
		c2.34-4.99,10.74-5.43,10.97-13.55c0.18-6.57,0.24-12.45-5.43-17.48c-1.35,1.42-2.46,3.19-4.08,4.21c-5.45,3.47-8.32,8.5-9.01,14.5
		c-0.54,4.67-0.41,9.47,0.04,14.16c0.37,3.88,4.08,5.69,8.93,4.55C146.87,431.34,146.4,429.24,145.91,427.02z M106.91,407.02
		c5.19,0.25,5.58,0.71,4.93,5.82c-0.08,0.65-0.74,1.35-0.59,1.89c0.38,1.38,0.97,2.73,1.65,4c0.36,0.66,1.24,1.05,1.63,1.71
		c4.11,7.07,10.44,10.73,18.64,11.74c-1.24-13.49-2.35-26.8-18.88-31.45c-0.22,0.77-0.52,1.88-1.12,4
		c-1.53-5.24-2.89-2.68-3.94-1.14c-0.96-0.78-1.85-1.5-2.74-2.22c-0.27,0.21-0.55,0.42-0.82,0.63
		C106.1,403.68,106.51,405.38,106.91,407.02z M445.91,442.24c-0.75-8.45-1.01-15.2-2.07-21.83c-0.6-3.79-3.65-6.71-7.65-6.97
		c-4.31-0.27-8.75,0.31-13.02,1.12c-3.64,0.69-3.54,2.88-1.11,5.39c4.26-2.33,8.69-3.96,13.06-1.38c1.49,0.88,1.9,3.48,2.79,5.27
		c-5.2,0.43-9.51,0.33-13.58,1.25c-4.34,0.98-6.86,5.15-6.26,8.83c0.67,4.14,4.56,7.71,9.04,7.29c3.8-0.36,7.49-1.82,10.59-2.63
		C440.18,439.69,442.6,440.77,445.91,442.24z M173.84,300.29c2.79-2.29,5.57-4.23,7.92-6.58c3.18-3.18,7.39-6.25,8.67-10.14
		c1.68-5.12,0.94-10.99,1.25-16.72C169.95,270.59,169.29,284.72,173.84,300.29z M119.79,361.35c-3.89,5.99-5.82,12.04-5.06,18.72
		c1.05,9.3,8.71,12.97,15.78,17.3C133.83,381.72,134.51,375.38,119.79,361.35z M438.57,267.23c-1.52,16.49,0.74,20.93,16.48,32.32
		C462.62,283.43,454.99,268.46,438.57,267.23z M451.3,303.5c-8.64-11.37-18.49-19.9-34.36-15.63
		C418.05,302.73,427.55,307.18,451.3,303.5z M498.55,397.63c19.01-9.57,20.7-23.66,10.57-34.61
		C495.72,371.53,495.29,384.01,498.55,397.63z M491.05,397.27c0.21-14.06-4.01-25.56-18.98-30.68
		C464.6,380.74,473.2,395.06,491.05,397.27z M495.61,326.85c-10.77,11.27-9.46,23.42-2.58,35.95
		C507.89,351.2,508.82,336.53,495.61,326.85z M486.94,364.95c-1.84-13.76-6.65-25.35-22.55-28.61
		C459.21,352.21,468.25,363.87,486.94,364.95z M496.85,431.89c19.85-4.69,25-17.36,18.01-31.3
		C500.48,406.28,495.97,417.47,496.85,431.89z M237.21,243.61 M477.2,396.55c-9.82,12.33-3.78,28.08,13.23,33.22
		C492.82,416.14,491.26,403.94,477.2,396.55z M373.58,404.71c-5.75-1.69-6.58-1.13-6.77,4.28c-0.07,1.89,0.51,3.99-2.55,4.47
		c-0.3,0.05-0.31,4.56-0.09,4.59c3.35,0.47,2.58,2.87,2.62,4.82c0.06,3.49-0.12,6.98,0.07,10.46c0.35,6.7,2.73,8.62,9.63,7.87
		c1.79-0.19,3.53-0.81,5.66-1.31c-0.5-1.98-0.89-3.54-1.28-5.07c-6.36,0.95-6.96,0.48-7.12-5.49c-0.06-2.37,0.07-4.75-0.02-7.11
		c-0.08-2.4,0.41-4,3.45-4.1c0.89-0.03,2.2-1.48,2.43-2.47c0.15-0.63-1.36-2.36-2.08-2.33c-3.62,0.13-3.93-1.91-3.78-4.57
		C373.82,407.37,373.64,405.99,373.58,404.71z M171.25,581.62c6.74,0,13.48-0.03,20.23,0.02c2.28,0.02,3.94-0.29,3.86-3.11
		c-0.08-2.63-1.72-2.8-3.76-2.8c-13.34,0.02-26.68,0.02-40.02,0c-2.13,0-4.11,0.01-4.14,2.9c-0.03,2.84,1.85,3.01,4.04,3
		C158.05,581.6,164.65,581.62,171.25,581.62z M271.93,527.99c0,0.02,0,0.03,0,0.05c5.61,0,11.22-0.04,16.82,0.02
		c2.17,0.02,3.64-0.42,3.65-2.93c0.02-2.42-1.23-3.09-3.51-3.08c-11.36,0.07-22.72,0.07-34.08,0.07c-2.06,0-3.74,0.31-3.77,2.87
		c-0.04,2.86,1.88,3.01,4.06,3.01C260.71,527.97,266.32,527.99,271.93,527.99z M218.9,273.03c3.68,0.94,7.36,1.8,11,2.84
		c6.4,1.83,12.43,1.9,17.86-2.64c0.84-0.7,2.32-0.64,3.45-1.05c0.58-0.21,1.44-0.66,1.48-1.06c0.05-0.5-0.5-1.25-1.01-1.57
		c-1.61-1.03-3.41-1.78-4.96-2.87c-4.43-3.13-9.2-4.18-14.13-1.66C227.85,267.41,223.41,270.35,218.9,273.03z M407.43,273.01
		c-9.48-11.51-19.9-12.35-29.28-2.35C387.2,279.69,397.25,277.59,407.43,273.01z M150.75,554.81c0,0.02,0,0.03,0,0.05
		c4.6,0,9.19-0.08,13.79,0.03c2.39,0.06,3.83-0.89,3.2-3.12c-0.32-1.14-1.95-2.74-3.02-2.76c-9.19-0.2-18.38-0.07-27.57-0.09
		c-2.21,0-3.59,0.63-3.54,3.08c0.05,2.56,1.73,2.84,3.79,2.83C141.85,554.78,146.3,554.81,150.75,554.81z M157.56,568.23
		c4.45,0,8.89-0.03,13.34,0.01c2.22,0.02,4.01-0.17,3.92-3.05c-0.08-2.53-1.55-2.91-3.69-2.9c-9.03,0.05-18.07,0.05-27.1,0.01
		c-2.22-0.01-3.58,0.62-3.54,3.06c0.04,2.54,1.65,2.88,3.74,2.86C148.67,568.19,153.12,568.22,157.56,568.23z M304.67,371.22
		c0.03-0.45,0.06-0.9,0.08-1.34c-7.03,0-14.07,0-21.1,0c-0.02,0.39-0.05,0.78-0.07,1.18c1.73,0.08,3.51-0.05,5.18,0.31
		c1.45,0.31,2.78,1.16,4.17,1.77c-1.3,0.48-2.65,0.85-3.88,1.47c-1.29,0.65-3.25,1.38-3.47,2.37c-0.22,1.02,1.11,3.23,2.11,3.46
		c2.4,0.54,5.44,0.86,5.24-3.2c0,3.44,0,6.88,0,10.57c-1.48,0.08-2.75,0.26-4,0.2c-2.29-0.1-3.5,0.71-3.48,3.1
		c0.03,2.53,1.56,2.81,3.68,2.93c1.84,0.1,3.66,0.73,6.3,1.29c0-6.92,0.26-13.79-0.13-20.62c-0.16-2.84,0.81-3.48,3.22-3.48
		C300.58,371.22,302.63,371.22,304.67,371.22z M279.38,495.23c0,0.03,0,0.06,0,0.09c-3.72,0-7.46-0.22-11.15,0.13
		c-1.2,0.12-2.25,1.74-3.36,2.67c1.03,1.01,2.03,2.86,3.1,2.91c7.29,0.29,14.59,0.31,21.88,0.09c0.97-0.03,2.32-1.8,2.71-3
		c0.67-2.12-0.72-2.95-2.87-2.9C286.25,495.28,282.82,495.23,279.38,495.23z M292.07,340.33c0,0,0-0.01,0-0.01
		c3.44,0,6.87-0.03,10.31,0.01c2.09,0.02,3.7-0.35,3.73-2.88c0.03-2.46-1.4-3.04-3.58-3.03c-6.73,0.03-13.46,0.05-20.19-0.03
		c-2.3-0.03-3.9,0.79-3.24,3.08c0.33,1.14,1.93,2.59,3.1,2.72C285.45,340.58,288.78,340.33,292.07,340.33z M206.49,273.37
		c2.29,0,4.58-0.02,6.87,0.01c1.83,0.02,3.52,0.05,3.27-2.55c-0.2-2.17-0.64-3.67-3.49-3.55c-4.57,0.2-9.15,0.12-13.73,0.03
		c-2.2-0.04-3.45,0.39-3.5,2.93c-0.06,2.78,1.35,3.26,3.72,3.14C201.91,273.27,204.2,273.36,206.49,273.37z M288.87,353.73
		c0,0.02,0,0.04,0,0.05c2.29,0,4.59-0.07,6.88,0.02c2.17,0.08,3.62-0.41,3.64-2.91c0.02-2.35-1.06-3.2-3.41-3.14
		c-4.59,0.11-9.18,0.11-13.76,0.05c-2.23-0.03-3.54,0.59-3.49,3.06c0.05,2.54,1.58,2.94,3.69,2.88
		C284.57,353.69,286.72,353.73,288.87,353.73z M137.37,535.52c0-0.01,0-0.02,0-0.03c-2.57,0-5.2-0.31-7.69,0.14
		c-1.17,0.21-2.06,1.88-3.08,2.9c1.06,0.97,2.07,2.7,3.19,2.77c4.69,0.3,9.43,0.28,14.12-0.05c1.08-0.08,2.04-1.87,3.05-2.87
		c-1.06-0.95-1.99-2.45-3.21-2.72C141.74,535.19,139.52,535.52,137.37,535.52z M130.11,527.98c0,0.01,0,0.02,0,0.04
		c2.43,0,4.91,0.28,7.26-0.13c1.06-0.18,2.69-1.87,2.57-2.66c-0.18-1.15-1.64-2.94-2.66-3.01c-4.83-0.3-9.71-0.27-14.55,0.03
		c-1.03,0.06-2.89,1.92-2.73,2.6c0.28,1.19,1.67,2.76,2.85,2.99C125.19,528.31,127.68,527.98,130.11,527.98z M309.51,395.26
		c0.5,0,1.01,0,1.51,0c0.16-1.29,0.42-2.57,0.45-3.87c0.06-2.37-0.21-4.75,0-7.1c0.28-3,4.14-5.82,7.38-5.73
		c3.99,0.12,4.47,2.88,4.59,5.81c0.11,2.79,0,5.58,0.1,8.37c0.03,0.93,0.42,1.86,0.64,2.78c0.63-0.06,1.26-0.13,1.89-0.19
		c-0.46-5.26-0.74-10.55-1.52-15.77c-0.17-1.11-2.2-2.79-3.35-2.77c-3.14,0.06-6.27,0.89-9.55,1.43c-0.19-2.4-0.45-5.68-0.71-8.96
		c-0.48,0.03-0.95,0.06-1.43,0.08C309.51,377.99,309.51,386.62,309.51,395.26z M310.99,462.11c0.48,8.09,3.47,11.36,10.06,10.98
		c5.74-0.33,9.71-4.66,9.42-10.27c-0.3-5.67-4.86-9.85-10.32-9.47C314.28,453.76,310.7,457.18,310.99,462.11z M393.04,468.53
		c-3.2,2.7-6.78,4.38-10.59,2.02c-1.94-1.2-3-3.72-4.46-5.64c0.34-0.39,0.68-0.79,1.01-1.18c5.52,0,11.04,0,16.6,0
		c-0.75-6.89-3.85-10.12-9.44-10.26c-5.15-0.13-9.08,3.06-9.89,8.01c-0.83,5.06,1.99,9.76,6.76,11.26
		C387.42,474.1,391.48,472.54,393.04,468.53z M349.76,386.9c-0.63-6.96-3.93-10.44-9.41-10.6c-4.52-0.13-8.87,3.39-9.76,7.89
		c-0.96,4.91,1.86,9.83,6.49,11.34c4.45,1.45,8.55,0.08,10.27-3.44c-9.69,3.67-14.07,2.19-14.03-5.19
		C338.69,386.9,344.08,386.9,349.76,386.9z M195.63,456.85c0.16,1.07,0.08,1.97,0.44,2.64c0.32,0.58,1.13,0.91,1.73,1.34
		c0.32-0.68,0.95-1.39,0.89-2.03c-0.3-3.13-0.96-6.23-1.15-9.36c-0.16-2.61-1.52-3.3-3.88-3.23c-3.93,0.13-6.85,3.34-6.51,7.24
		C187.46,456.91,189.04,457.59,195.63,456.85z M222.54,481.08c-0.05,2.84,2.54,5.11,6.02,5.11c3.26,0,5.57-1.36,5.74-4.78
		c0.18-3.59-2.98-6.78-6.54-6.87C225.3,474.46,222.6,477.85,222.54,481.08z M174.4,420.71c0-2.22,0-3.95,0-6.01
		c-3.07,0-5.78,0-8.48,0c-5.41-0.01-5.66,0.31-4.47,6.01C165.66,420.71,169.9,420.71,174.4,420.71z M279.04,300.11
		c3.58,0,6.99,0.22,10.34-0.13c1.06-0.11,2.86-1.86,2.73-2.58c-0.22-1.18-1.57-2.72-2.76-3.05c-1.84-0.51-3.96,0.03-5.94-0.16
		C279.23,293.8,278.08,295.73,279.04,300.11z M174.47,374.72c-4.5,0-8.56,0-12.73,0c0,2.04,0,3.87,0,5.64c4.39,0,8.45,0,12.73,0
		C174.47,378.45,174.47,376.84,174.47,374.72z M278.39,541.4c0,0.01,0,0.02,0,0.03c1.43,0,3.02,0.37,4.25-0.11
		c1.15-0.44,2.63-1.77,2.66-2.75c0.04-1-1.39-2.8-2.38-2.94c-2.8-0.4-5.75-0.39-8.55,0.02c-1.02,0.15-2.51,1.89-2.48,2.88
		c0.02,0.97,1.53,2.26,2.68,2.76C275.63,541.77,277.1,541.4,278.39,541.4z M174.24,595.03c1.84,0,3.41,0.36,4.65-0.11
		c1.16-0.44,2.89-1.94,2.74-2.64c-0.25-1.18-1.62-2.5-2.85-3.03c-1.19-0.52-2.85-0.33-4.23-0.09c-2.4,0.43-6.49-1.83-6.43,2.97
		C168.18,596.94,172.35,594.28,174.24,595.03z M161.55,407.25c4.42,0,8.51,0,12.78,0c0-2.04,0-3.85,0-5.64c-4.5,0-8.6,0-12.78,0
		C161.55,403.63,161.55,405.36,161.55,407.25z M120.35,495.28c-1.9,0-3.54-0.43-4.7,0.12c-1.19,0.56-1.91,2.07-2.84,3.16
		c1.14,0.89,2.44,2.66,3.4,2.5c3.34-0.56,7.36,2.31,10.02-1.68c0.07-0.1,0.01-0.27,0.03-0.41
		C126.87,493.3,122.39,495.85,120.35,495.28z M271.66,514.6c1.57,0,3.28,0.36,4.67-0.12c0.98-0.34,2.1-1.85,2.1-2.83
		c0-0.98-1.24-2.72-2.08-2.81c-3.1-0.34-6.29-0.34-9.4,0c-0.84,0.09-2.07,1.84-2.07,2.82c0,0.98,1.13,2.48,2.11,2.82
		C268.39,514.96,270.09,514.6,271.66,514.6z M352.07,454.1c-0.64,0.01-1.29,0.03-1.93,0.04c0,3.43,0.16,6.87-0.04,10.29
		c-0.23,3.85-3.6,7.04-7.25,6.93c-4.51-0.14-5-3.36-5.13-6.77c-0.13-3.48-0.34-6.95-0.51-10.43c-0.56,0-1.11,0-1.67,0
		c0,4.14-0.18,8.28,0.04,12.41c0.3,5.68,5.16,8.24,10.38,5.59c1.24-0.63,2.32-1.56,3.47-2.34c0.96,1.01,1.84,1.95,2.64,2.79
		C352.07,466.15,352.07,460.13,352.07,454.1z M299.33,367.14c0,0.01,0,0.02,0,0.03c1.15,0,2.3-0.05,3.45,0.01
		c2.32,0.13,3.89-0.86,3.28-3.11c-0.31-1.14-1.94-2.48-3.18-2.73c-2.05-0.41-4.43-0.45-6.38,0.2c-1.46,0.48-2.44,2.29-3.64,3.51
		c1.3,0.7,2.54,1.52,3.91,2.04C297.51,367.37,298.46,367.14,299.33,367.14z M371.15,455.99c-3.07-3.02-6.8-3.5-10.38-1.44
		c-1.4,0.81-2.51,3.02-2.62,4.67c-0.07,1.09,1.67,2.62,2.95,3.39c1.42,0.85,3.43,0.75,4.84,1.6c1.77,1.06,4.54,2.7,4.5,4.02
		c-0.09,3.11-3.2,3.56-5.89,3.23c-2.3-0.28-4.53-1.04-7.27-1.71c3.82,3.56,8.92,4.6,12.45,2.27c1.42-0.93,2.74-3.06,2.74-4.64
		c0-1.3-1.77-2.99-3.18-3.82c-1.67-0.97-3.94-0.93-5.67-1.82c-1.44-0.74-2.47-2.21-3.69-3.35c1.56-1.22,2.97-3.15,4.7-3.47
		C366.67,454.55,368.97,455.58,371.15,455.99z M245.05,483.4c3.79,0.22,5.81-1.45,6.05-5.01c0.23-3.41-2.31-4.48-4.96-4.38
		c-3.13,0.12-5.25,2.11-5.4,5.35C240.6,482.23,241.94,483.88,245.05,483.4z M206.36,470.14c0.15-4.39-2.67-8.51-4.93-8.34
		c-2.81,0.21-4.33,1.83-4.28,4.72c0.07,3.38,1.37,5.93,5.16,5.74C203.93,472.18,205.47,470.64,206.36,470.14z M206.65,486.82
		c1.84-2.35,3.69-3.95,4.34-5.93c0.24-0.73-2.16-3.03-3.66-3.38c-2.45-0.56-6.21,3.17-5.39,5.2
		C202.51,484.09,204.41,484.95,206.65,486.82z M220.46,472.79c2.03-1.74,4.56-2.93,4.55-4.1c-0.03-2.5-1.62-4.77-4.81-4.92
		c-3.29-0.15-4.5,2.38-4.34,4.58C215.95,469.71,218.42,470.92,220.46,472.79z M222.88,486.35c-2.66-1.85-4.14-3.68-5.82-3.87
		c-2.93-0.34-4.57,2.1-4.08,4.54c0.3,1.47,2.71,3.65,3.98,3.54C218.69,490.4,220.24,488.36,222.88,486.35z M209.24,458.16
		c2.32-2.33,3.9-3.92,5.47-5.5c-1.32-1.23-2.55-3.39-3.97-3.51c-3.22-0.27-4.41,2.24-4.15,5.05
		C206.68,455.18,207.81,456.09,209.24,458.16z M239.75,462.91c-2.01,2.63-3.28,4.3-4.55,5.96c1.29,0.89,2.49,2.33,3.89,2.54
		c2.57,0.39,5.21-0.54,4.89-3.6C243.83,466.43,241.83,465.23,239.75,462.91z M302.39,563.76c0.01-0.34,0.03-0.68,0.04-1.02
		c-7.43,0-14.87,0-22.3,0c0,0.34,0,0.68,0,1.02C287.55,563.76,294.97,563.76,302.39,563.76z M256.9,469.79
		c-2.08-1.57-3.62-3.29-4.17-3.03c-1.91,0.9-3.47,2.48-5.17,3.8c1.2,1.13,2.67,3.38,3.53,3.17
		C252.92,473.3,254.43,471.59,256.9,469.79z M112.66,388.14c-2.88,0.34-6.17-1.62-6.62,2.76c-0.24,2.37,1.23,3.07,3.43,3.03
		C113.67,393.87,112.6,391.05,112.66,388.14z M264.97,300.13c-0.59-3.03,0.74-6.16-3.89-5.98c-2.42,0.09-3.48,1.1-3.19,3.3
		C258.49,301.87,261.82,299.6,264.97,300.13z M236.95,230.02 M113,378.49c-0.02-0.66-0.04-1.32-0.05-1.99
		c-1.31-0.64-2.71-1.88-3.92-1.73c-1.17,0.15-2.74,1.58-3.06,2.74c-0.61,2.22,0.87,3.53,3.2,3.02
		C110.53,380.22,111.73,379.19,113,378.49z M320.1,405.47c0.03-0.6,0.05-1.2,0.08-1.79c-1.13-0.75-2.17-1.87-3.41-2.16
		c-2.1-0.49-3.88,0.41-3.32,2.78c0.28,1.17,1.67,2.75,2.74,2.9C317.39,407.36,318.79,406.11,320.1,405.47z M108.43,448.19
		c0.62-0.02,1.24-0.04,1.86-0.07c0.71-1.24,2.07-2.55,1.94-3.7c-0.12-1.03-1.74-2.35-2.96-2.69c-2.15-0.59-3.8,0.55-3.3,2.86
		C106.26,445.91,107.58,447,108.43,448.19z M241.8,446.07c-0.61,0.03-1.22,0.07-1.84,0.1c-0.94,1.55-2.39,3.04-2.62,4.69
		c-0.11,0.82,2.47,2.95,3.05,2.71c1.69-0.7,3.55-2.07,4.21-3.63C244.94,449.16,242.81,447.39,241.8,446.07z M299.2,389.7
		c-0.05,0.58-0.1,1.17-0.15,1.75c1.09,0.84,2.06,2.11,3.29,2.42c2.04,0.52,3.97-0.25,3.37-2.73c-0.29-1.18-1.64-2.66-2.79-2.93
		C301.86,387.96,300.45,389.14,299.2,389.7z M294.65,474.86c0.6,0.02,1.19,0.05,1.79,0.07c0.81-1.11,2.35-2.31,2.23-3.32
		c-0.14-1.13-1.73-2.82-2.8-2.9c-1-0.08-2.78,1.5-3.03,2.6C292.62,472.32,293.98,473.66,294.65,474.86z M117.36,481.35
		c-0.6-0.03-1.2-0.06-1.8-0.09c-0.92,1.17-2.33,2.22-2.64,3.53c-0.53,2.29,1.11,3.48,3.29,2.92c1.26-0.33,3.03-1.59,3.15-2.59
		C119.51,483.95,118.1,482.61,117.36,481.35z M179.04,481.29c-0.58,0.03-1.16,0.07-1.74,0.1c-0.65,1.19-1.99,2.51-1.76,3.52
		c0.25,1.11,1.77,2.47,2.99,2.77c2.39,0.59,3.57-1.04,3.05-3.15C181.28,483.32,179.92,482.36,179.04,481.29z M109.3,368.93
		c1.66-2.36,2.85-3.39,3.13-4.61c0.51-2.26-0.98-3.54-3.18-2.96c-1.25,0.33-3.01,1.71-3.07,2.7
		C106.11,365.22,107.63,366.48,109.3,368.93z M226.33,596.72c1.77-2.23,3.33-3.34,3.27-4.37c-0.06-1.11-1.45-2.73-2.59-3.07
		c-1.94-0.58-3.89,0.26-3.51,2.71C223.69,593.24,224.85,594.34,226.33,596.72z M261.64,288.46c1.38-2.44,2.74-3.77,2.52-4.77
		c-0.24-1.11-1.79-2.47-3.01-2.76c-2.31-0.56-3.68,0.94-3.13,3.12C258.33,285.26,259.74,286.22,261.64,288.46z M178.31,341.93
		c1.71-2.17,3.35-3.35,3.25-4.37c-0.11-1.11-1.67-2.63-2.9-2.97c-2.02-0.57-3.94,0.38-3.48,2.82
		C175.42,338.65,176.72,339.71,178.31,341.93z M115.07,340.95c0.6,0.03,1.2,0.05,1.81,0.08c0.89-1.13,2.21-2.14,2.57-3.41
		c0.55-1.99-0.25-3.39-2.88-3.31c-2.22,0.07-4.26,0.24-3.77,2.99C113.03,338.6,114.28,339.74,115.07,340.95z M289.75,320.45
		c-0.59,0.02-1.17,0.04-1.76,0.06c-0.72,1.13-1.82,2.18-2.09,3.41c-0.51,2.34,1.06,3.5,3.22,2.9c1.24-0.34,2.97-1.78,3-2.77
		C292.16,322.87,290.61,321.65,289.75,320.45z M112.95,459.01c0.01-0.59,0.02-1.19,0.03-1.78c-1.16-0.72-2.24-1.81-3.5-2.09
		c-2.1-0.46-3.59,0.33-3.6,2.82c-0.02,2.4,1.25,3.42,3.47,2.96C110.63,460.66,111.76,459.67,112.95,459.01z M305.92,380.42
		c-0.11-2.23-0.19-3.94-0.26-5.51c-2.32,0-4.08,0-6.13,0c0.1,2.09,0.17,3.8,0.25,5.51C301.98,380.42,303.64,380.42,305.92,380.42z
		 M120.11,351.81c0.01-0.65,0.02-1.3,0.03-1.94c-1.29-0.7-2.51-1.71-3.9-2.02c-2.17-0.49-3.53,0.42-3.53,2.88
		c0,2.38,1.16,3.47,3.43,2.99C117.54,353.42,118.79,352.47,120.11,351.81z M231.05,453.84c-1.77,2.61-3.73,4.34-3.39,5.25
		c0.52,1.38,2.58,2.86,4.11,2.99c1.04,0.09,3.2-2.08,3.18-3.21C234.93,457.57,233.07,456.29,231.05,453.84z M207.84,461.27
		c1.44,1.27,3,3.64,4.17,3.47c2.04-0.3,3.84-2.16,5.92-3.48C214.21,457.3,211.42,458.03,207.84,461.27z M222.64,402.18
		c-0.27,0.31-0.55,0.61-0.82,0.92c0.29,1.11,0.33,3.02,0.91,3.2c3.03,0.9,6.2,1.84,9.3,1.77c1.57-0.04,3.09-2.18,4.64-3.37
		c-0.24-0.7-0.48-1.4-0.72-2.1C231.18,407.17,226.74,407.08,222.64,402.18z M196.62,466.85c-2.24-1.71-3.77-3.52-4.43-3.26
		c-1.51,0.6-3.26,2.05-3.62,3.47c-0.23,0.88,1.9,3.29,2.97,3.29C192.88,470.36,194.24,468.61,196.62,466.85z M192.69,494.89
		c-0.55,0-1.1-0.01-1.65-0.01c-0.64,1.08-1.86,2.23-1.75,3.23c0.12,1.08,1.5,2.03,2.33,3.04c1.03-0.99,2.61-1.85,2.92-3.03
		C194.77,497.27,193.36,495.98,192.69,494.89z M242.12,401.76c0.78,0.07,1.57,0.14,2.35,0.2c0.57-2.7,1.29-5.38,1.58-8.11
		c0.07-0.64-1.31-1.95-2.08-1.99c-0.8-0.04-2.36,1.06-2.38,1.69C241.53,396.28,241.91,399.02,242.12,401.76z M214.57,399.87
		c0.79,0.06,1.58,0.12,2.37,0.18c0.58-2.46,1.33-4.9,1.61-7.39c0.07-0.64-1.35-1.96-2.16-2.01c-0.81-0.05-2.41,1.07-2.42,1.7
		C213.91,394.85,214.33,397.36,214.57,399.87z M215.48,525.32c1.83,1.23,2.87,2.47,3.92,2.48c0.92,0.01,1.86-1.35,2.8-2.1
		c-1.09-1.17-2.17-2.33-3.26-3.5C218.07,522.99,217.19,523.78,215.48,525.32z M300.42,487.03c-0.16-0.5-0.32-1.01-0.48-1.51
		c-1.94,0.68-4.49,0.86-5.68,2.18c-1.45,1.62,0.57,3.7,4.62,5.18C299.39,490.95,299.91,488.99,300.42,487.03z M376.91,484.97
		c-1.23,0.54-2.71,0.83-3.63,1.69c-0.94,0.89-2.07,2.56-1.77,3.47c0.33,1.01,2.13,1.85,3.42,2.1c0.45,0.09,1.66-1.74,1.89-2.82
		C377.16,487.82,376.91,486.13,376.91,484.97z M277.64,377.27c1.71,1.49,2.67,2.33,3.63,3.16c0.79-0.91,2.18-1.81,2.21-2.74
		c0.03-0.96-1.1-2.42-2.06-2.78C280.79,374.68,279.54,376.03,277.64,377.27z M318.88,567.83c0-0.31,0.01-0.62,0.01-0.92
		c-3.83,0-7.66,0-11.49,0c0,0.31,0,0.62,0.01,0.92C311.23,567.83,315.06,567.83,318.88,567.83z M313.49,491.63
		c0.29-0.02,0.58-0.04,0.87-0.07c-0.15-1.81-0.3-3.62-0.49-5.8c-2.82,0.14-5.31,0.26-8.04,0.4c0.21,1.96,0.4,3.66,0.64,5.82
		c0.77-1.67,1.31-2.84,1.85-4.02c0.3,0.08,0.6,0.16,0.9,0.24c0.28,1.13,0.56,2.25,0.92,3.67c0.59-1.62,1.04-2.85,1.48-4.08
		c0.33,0.06,0.67,0.12,1,0.18C312.91,489.19,313.2,490.41,313.49,491.63z M236.17,492.82c1.63-2.14,2.81-3.52,3.69-5.06
		c0.11-0.19-1.76-1.93-2.07-1.77c-1.66,0.84-3.12,2.07-4.65,3.16C233.92,490.1,234.71,491.05,236.17,492.82z M214.16,407.07
		c0.13-0.54,0.25-1.07,0.38-1.61c-1.98-0.64-3.94-1.43-5.97-1.78c-0.41-0.07-1.35,1.5-1.57,2.42c-0.08,0.32,1.24,1.36,1.95,1.39
		C210.68,407.56,212.42,407.23,214.16,407.07z M350.16,486.57c-3.34-0.13-5.28,1.01-4.29,3.81c0.41,1.15,2.75,1.66,4.21,2.46
		c0.26-0.38,0.51-0.77,0.77-1.15C350.63,490.07,350.41,488.45,350.16,486.57z M361.44,485.92c-1.75,0.79-3.35,1.07-4.12,2
		c-0.59,0.72-0.64,2.84-0.06,3.3c1.09,0.86,2.81,0.97,4.82,1.56C361.85,490.23,361.69,488.5,361.44,485.92z M273.53,487.54
		c-0.14-0.56-0.27-1.13-0.41-1.69c-1.59,0.18-3.6-0.13-4.64,0.7c-0.76,0.62-0.85,3.16-0.15,4.05c0.76,0.97,2.77,1.01,4.24,1.42
		c0.05,0.01,0.23-0.39,0.42-0.74c-1.01-0.09-2-0.18-3.36-0.31C271.18,489.62,272.35,488.58,273.53,487.54z M153.1,331.61
		c-0.64-0.3-1.28-0.59-1.92-0.89c-2.02,4.34-4.04,8.69-6.06,13.03c0.38,0.17,0.76,0.34,1.13,0.51
		C148.54,340.04,150.82,335.83,153.1,331.61z M192.46,286.2c0.28,0.51,0.56,1.02,0.84,1.54c4.4-2.24,8.8-4.49,13.2-6.73
		c-0.31-0.57-0.62-1.14-0.94-1.71C201.2,281.59,196.83,283.9,192.46,286.2z M218.44,460.33c0.8,0.13,1.6,0.25,2.4,0.38
		c0.57-1.65,1.14-3.31,1.72-4.96c-1.2-0.07-3.34-0.45-3.44-0.16C218.6,457.07,218.61,458.73,218.44,460.33z M422.62,486.65
		c-2.66,0-4.78,0-7.09,0c0,1.61,0,3.04,0,5.62c0.92-2.31,1.42-3.55,2.2-5.51c0.73,2.15,1.18,3.47,1.84,5.4
		c0.41-2.08,0.68-3.42,0.94-4.76c0.28,0,0.57,0.01,0.85,0.01c0.52,1.44,1.04,2.88,1.56,4.32c0.22-0.05,0.44-0.11,0.66-0.16
		C423.28,489.99,422.97,488.41,422.62,486.65z M196.17,480.68c1.19-1.38,2.67-2.48,2.48-2.98c-0.44-1.14-1.69-1.99-2.62-2.96
		c-0.92,0.83-2.56,1.66-2.58,2.5C193.44,478.19,194.89,479.16,196.17,480.68z M264.26,455.19c-0.32-0.51-0.64-1.01-0.95-1.52
		c-2.05,0.55-4.2,0.89-6.07,1.79c-0.49,0.23-0.07,2.22-0.07,3.41c0.24,0,0.48,0,0.72,0c0.77-1.47,1.55-2.93,2.32-4.4
		c0.3,0.14,0.61,0.28,0.91,0.42c-0.31,1.49-0.61,2.99-0.92,4.48c0.36,0.17,0.72,0.34,1.08,0.5
		C262.27,458.31,263.26,456.75,264.26,455.19z M343.28,487.96c-0.25-0.59-0.5-1.18-0.75-1.76c-1.39,0.69-3.29,1.06-3.99,2.16
		c-0.49,0.77,0.38,2.78,1.24,3.74c0.49,0.55,2.17,0.1,3.32,0.1c0-0.24,0-0.47,0.01-0.71c-1.08-0.15-2.15-0.29-3.79-0.52
		C340.97,489.71,342.13,488.84,343.28,487.96z M444.45,487.77c-0.25-0.5-0.5-1.01-0.75-1.51c-1.28,0.49-2.89,0.68-3.72,1.56
		c-0.66,0.7-0.88,2.85-0.34,3.31c1.04,0.88,2.74,1.03,4.17,1.48c0.09-0.32,0.18-0.64,0.27-0.96c-1.03-0.19-2.07-0.38-3.46-0.63
		C442.14,489.73,443.3,488.75,444.45,487.77z M387.91,492.29c0.28-2.23,0.46-3.57,0.63-4.92c1.33,0.68,1.77,1.34,2.08,2.06
		c0.27,0.62,0.4,1.3,0.82,2.76c0.18-6.27-0.84-6.82-7.46-5.01c0,1.42,0,2.82,0,4.99c0.72-1.99,1.16-3.21,1.6-4.42
		c0.32,0.05,0.65,0.09,0.97,0.14C386.93,489.13,387.31,490.36,387.91,492.29z M287.89,491.29c0.92-1.47,1.61-2.59,2.87-4.61
		c0.57,2.35,0.85,3.51,1.35,5.55c0.59-7.24,0.21-7.58-5.12-5.53C287.26,488.01,287.52,489.33,287.89,491.29z M265.34,489.86
		c0.22-0.26,0.44-0.53,0.66-0.79c-1.44-1.12-2.87-2.24-4.49-3.5c1.19-0.44,2.21-0.81,3.23-1.18c-0.96-0.66-1.87-0.92-2.45-0.6
		c-1.11,0.61-2.02,1.54-3.01,2.33c1,0.69,1.97,1.42,3,2.06C263.26,488.79,264.32,489.3,265.34,489.86z M329.12,491.31
		c-0.22-1.56-0.42-2.96-0.63-4.4c-0.6,0.35-1.27,0.73-2.18,1.25c-0.25-1.5-0.46-2.78-0.68-4.06c-0.24,0.04-0.49,0.08-0.73,0.11
		c0,2.5,0,5,0,8.5c0.86-1.57,1.26-2.29,1.73-3.14C327.5,490.17,328.27,490.71,329.12,491.31z M264.98,392.81
		c0.56,0.1,1.11,0.2,1.67,0.3c0.34-1.4,0.7-2.79,0.94-4.2c0.01-0.05-1.16-0.3-1.78-0.45C265.53,389.91,265.25,391.36,264.98,392.81z
		"/>
	<path d="M140.2,366.63c-0.61,1.36-1.62,2.68-1.77,4.09c-1.14,10.55-2.28,21.11-3.07,31.68c-0.43,5.77-0.62,11.64-0.08,17.38
		c0.73,7.81,2.02,15.59,3.51,23.3c1.42,7.36,3.34,14.63,5.17,21.91c0.42,1.68,1.39,3.23,3.09,4.55c-1.13-4.57-2.31-9.13-3.39-13.71
		c-1.62-6.83-1.12-13.28,3.83-18.88c0.55-0.62,1.15-1.34,1.34-2.11c1.42-5.68,5.58-6.88,10.89-6.66c4.73,0.19,9.47,0.04,14.62,0.04
		c0,1.96,0,3.78,0,6.01c-5.49,0-10.9,0-16.38,0c1.55,6.69,2.4,7.37,8.82,7.38c1.44,0,2.88,0.08,4.31-0.04
		c2.43-0.19,3.73,0.43,3.68,3.18c-0.04,2.57-1.3,3.01-3.51,2.93c-2.86-0.11-5.73-0.03-9.05-0.03c-0.42,2.44-0.8,4.71-1.19,6.98
		l0.14-0.14c-3.55,4.44-7.11,8.89-10.21,12.76c1.01,1.58,2.64,3,2.78,4.55c0.41,4.42-4.09,1.49-5.99,3.55
		c9.49,22.9,22.4,43.81,40.79,61.24c0.53-0.35,1.06-0.71,1.59-1.06c-2.66-3.18-5.59-6.18-7.91-9.58c-3.12-4.55-6.06-9.27-8.44-14.21
		c-0.7-1.45,0.89-3.86,1.23-5.86c0.48-2.86,0.78-5.74,1.16-8.62c12.88,2.02,20.81,13.32,17.8,25.44c-0.8,3.23-1.95,6.39-3.05,9.54
		c-0.99,2.86-1.09,5.52,1.61,7.57c6.98,5.29,13.73,10.93,21.08,15.69c6.03,3.9,12.73,6.85,19.24,10c12.45,6,25.76,8.09,39.57,8.42
		c10.15,0.24,19.99-1.2,29.87-3.15c9.98-1.97,19.95-1.09,29.94,0.88c28.21,5.57,54.47,1.08,79.37-13.45
		c20.35-11.88,37.16-26.99,50.25-46.01c8.85-12.86,16.71-26.32,21.14-41.35c3.11-10.56,6.73-21.03,8.84-31.78
		c4.49-22.94,3.99-45.98-0.81-68.89c-0.61-2.9-1.36-5.77-1.39-8.67c13.21,51.17,5.55,99.65-20.79,146
		c7.7-13.07,16.61-23.98,34.2-21.81c1.94,10.19-6.56,21.39-18.07,22.5c-4.67,0.45-9.44-0.15-14.15,0.07
		c-1.63,0.08-3.92,0.76-4.7,1.93c-10.88,16.24-23.83,30.6-39.83,42.27c-0.31,0.23-0.51,0.6-0.69,1.36
		c9.9-7.08,20.15-5.23,30.38-1.29c-2.83,10.69-14.59,17.62-25.62,14.52c-3.96-1.11-7.75-2.9-11.49-4.65
		c-0.95-0.45-1.41-1.89-2.07-2.84c-8.69,4.12-18.17,8.61-27.64,13.1l0.11-0.12c-6.3,1.42-12.61,2.85-18.91,4.27
		c11.96-0.71,19.35,6.34,26.14,14.3c-9.48,7.37-21.34,9.14-30.78-0.99c-1.82-1.95-3.99-3.89-4.97-6.24
		c-2.29-5.5-6.27-7.1-11.94-6.38c-2.19,0.28-4.45,0.05-6.48,0.05c3.43,4.72,7.3,9.15,10.11,14.15c2.81,5,4.86,10.54,1.08,16.39
		c-0.27-1.31-0.8-2.63-0.76-3.94c0.39-16.19-14.22-28.53-30.46-30.37c-4.96-0.56-10.37-1.16-15,0.17
		c-8.14,2.34-17.41,3.35-22.74,11.13c-3.93,5.73-8.16,11.43-7.66,18.95c0.1,1.48-0.56,3-1.46,4.42c-3.39-5.89-1.48-11.79,1.12-16.85
		c2.65-5.15,7.15-9.41,11-14.25c-5.16,0.37-10.55,0.75-15.93,1.13l0.1,0.12c-1.16-0.55-2.33-1.59-3.49-1.58
		c-17.01,0.16-32.16-6-47.13-12.82c-1.28-0.58-2.42-1.49-3.59-2.3c-1.82-1.25-3.04-0.97-5.21,0.18c-8.67,4.6-17.77,7.57-27.85,3.73
		c-3.32-1.26-5.7-2.86-7.16-6.14c-0.85-1.92-2.87-3.32-4.22-5.06c-0.54-0.7-0.88-1.67-0.93-2.54c-0.02-0.31,1.03-0.92,1.64-1
		c2.74-0.38,5.55-0.42,8.26-0.94c6.55-1.25,12.82-1.02,18.68,2.5c0.78,0.47,1.74,0.66,2.94,0.66
		c-38.16-28.07-58.28-66.61-67.38-110.87c-5.59-27.21-4.54-54.7,4.02-81.62c0,1.98,0,3.96,0,5.94L140.2,366.63z"/>
	<path d="M269.75,267.11c-4.73-3.39-9.33-6.45-13.6-9.89c-1.32-1.06-2.35-3.11-2.48-4.78c-0.41-5.49-0.07-11.03-0.6-16.5
		c-0.17-1.75-2.16-3.33-3.14-6.18c3.8,0.73,8.01,0.69,11.3,2.37c4.27,2.18,7.91,5.6,11.58,8.75c1.04,0.9,1.77,2.79,1.67,4.16
		c-0.22,3.08-1.05,6.12-1.72,9.66c-1.09,0.23-2.81,0.6-4.64,1c0.2,3.32,1.66,4.84,4.96,4.29c2.08-0.35,4.2-0.59,6.22-1.15
		c2.63-0.73,3.51-4.38,1.91-7.52c-0.9-1.77-2.94-3.54,0.41-5.02c0.34-0.15,0.66-1.15,0.47-1.5c-1.98-3.72-0.76-6.97,0.57-10.7
		c1.42-3.99-2.06-4.37-5.73-4.33c1.89-1.6,3.79-3.2,5.86-4.95c1.72,0.77,3.98,1.79,6.88,3.09c-0.85,0.76-1.52,1.79-2.46,2.12
		c-3.35,1.17-2.75,3.09-0.58,4.39c3.1,1.85,3.78,3.92,2.99,7.31c-1.13,4.87,2.5,1.66,4.7,2c-0.13,1.39-0.21,2.8-0.4,4.19
		c-0.72,5.2,1,7.91,5.3,8.27c6.3,0.52,11.35-2.73,11.18-7.53c-0.05-1.45-1.26-3.68-2.42-4.03c-1.19-0.36-3,1.11-4.48,1.88
		c-0.4,0.21-0.59,0.8-0.95,1.32c-3.91-6.18-3.93-13.66-0.67-16.97c2.5,0.78,4.7,1.59,6.96,2.01c0.27,0.05,1.69-2.43,1.32-3.07
		c-0.97-1.71-2.63-3.05-5.48-4.76c1.3-1.55,2.74-3.01,3.85-4.68c1.12-1.67,1.78-3.64,2.91-5.3c0.89-1.31,2.18-2.37,3.29-3.54
		c0.79,1.17,2.27,2.37,2.22,3.52c-0.11,2.87,0.4,4.59,3.61,5.61c1.71,0.54,2.83,2.81,3.7,3.75c-2.49,2.28-4.35,3.64-5.67,5.39
		c-0.39,0.51,0.71,3.03,1.21,3.05c2.45,0.11,4.93-0.31,7.95-0.59c3.2,4.34,3.27,9.86-0.54,15.59c-1.28-1.02-2.39-2.45-3.82-2.89
		c-1.33-0.41-3,0.24-4.45,0.42c0.06,7.14,3.11,10.47,9.36,10.63c5.75,0.15,6.77-1.37,7.51-11.34c1.12-0.31,2.32-0.65,3.78-1.05
		c-0.98-3.85-0.77-7.1,3.39-9.29c2.16-1.13,1.96-3.19-0.26-4.64c-0.73-0.48-1.46-0.95-2.4-1.56c2.5-1.33,4.54-2.41,6.64-3.53
		c1.17,1.46,2.48,3.1,4.01,5.03c-5.47,1.11-5.21,4.04-2.75,8.03c0.74,1.21,0.54,3.35,0.02,4.81c-0.7,1.98-1.62,3.55,0.91,4.96
		c0.38,0.21,0.19,2.02-0.25,2.84c-2.38,4.42-1.69,7.16,2.53,9.29c4.35,2.19,7.59,1.15,9.84-3.44c-4.04-0.73-5.83-2.97-5.04-7.06
		c0.21-1.09-0.71-2.34-0.91-3.55c-0.17-1.01-0.51-2.42,0.01-3.05c5.71-7,13.52-10.43,22.07-12.27c-0.54,5.39-1.07,10.46-1.55,15.54
		c-0.14,1.47-0.31,2.99-0.1,4.44c0.43,2.85-0.11,4.95-2.75,6.83c-4.44,3.16-8.52,6.8-13,10.44c0.57,0.52,1.36,1.26,2.16,1.98
		c2.39,2.15,2.3,3.96-0.65,5.59c-0.87,0.48-2.22,1.91-2.11,2.06c2.56,3.54-0.15,6.79-0.34,10.16c-0.1,1.73,0.8,3.5,0.98,5.27
		c0.09,0.85-0.16,2.11-0.76,2.53c-0.62,0.44-2.24,0.49-2.72,0.02c-7.59-7.38-17.73-6.32-27.06-7.63c-16.52-2.32-32.9-0.87-49,3.17
		c-2.13,0.54-3.73,2.85-5.78,4c-1.54,0.86-3.4,1.18-5.12,1.74c-0.17-1.29-0.53-2.6-0.46-3.88c0.1-2.01,0.97-4.07,0.65-5.98
		c-0.47-2.82-2.86-5.45-0.08-8.39c0.35-0.37-0.12-1.98-0.69-2.57C265.36,271.56,265.32,271.6,269.75,267.11z M314.73,253.87
		c-1.99,2.48-3.5,4.37-5.66,7.07c4.18,0,6.93,0,10.41,0C317.88,258.57,316.61,256.67,314.73,253.87z M295.01,261.69
		c-2.95-2.11-4.97-3.56-7.2-5.15c-1.14,2.44-2.09,4.49-3.3,7.08C288.12,262.95,291.21,262.39,295.01,261.69z M334.44,261.77
		c3.98,0.67,7.04,1.19,10.71,1.82c-1.54-2.6-2.68-4.53-3.75-6.36C339.25,258.64,337.33,259.89,334.44,261.77z"/>
	<path d="M277.53,369.65c0,2.3,0.19,4.61-0.03,6.88c-1.11,11.56-2.4,23.1-3.48,34.67c-0.58,6.23-0.79,12.49-1.28,18.73
		c-0.12,1.48-0.66,2.94-1.08,4.4c-0.38,1.32-1.07,2.59-1.28,3.94c-0.96,6.14-1.25,12.44-2.82,18.42
		c-1.71,6.49-4.52,12.71-6.95,19.01c-1,2.59-1.72,5.55-3.52,7.5c-2.7,2.93-6.45,4.92-9.41,7.66c-7.43,6.9-16.41,6.86-25.84,6.41
		c-9.43-0.44-17.69-3.95-25.78-7.96c-3.21-1.59-6.49-3.92-8.46-6.75c-2.17-3.11-2.87-7.19-4.23-10.83
		c-0.23-0.61-0.56-1.18-1.24-2.57c-0.41,2.16-0.66,3.44-1.15,6.02c-2.19-1.06-4.89-1.51-5.63-2.93c-1.34-2.53-0.07-3.28,6.56-4.28
		c0.08-0.34,0.37-0.83,0.22-1.09c-3.7-6.39-3.29-13.6-3.95-20.49c-0.63-6.54-0.02-13.18-0.14-19.78c-0.12-6.45-0.52-12.9-0.73-19.35
		c-0.07-2.07,0.08-4.14,0.11-6.21c0.03-2.2,0.03-4.4,0.05-6.6c0.02-2.33,0.02-4.66,0.09-6.98c0.02-0.83,0.28-1.65,0.3-2.47
		c0.14-6.64,0.35-13.28,0.29-19.91c-0.01-1.2-1.13-2.39-1.74-3.58c-0.41,0.14-0.81,0.28-1.22,0.42c-0.39,1.66-0.78,3.31-1.37,5.8
		c-0.83-1.49-1.24-2.24-1.22-2.19c-2.94,0.61-5.5,1.24-8.1,1.65c-2.33,0.37-3.4-0.63-3.35-3.06c0.05-2.43,1.19-3.13,3.49-3.02
		c2.54,0.13,5.1,0.03,7.82,0.03c-3.78-8.65-2.8-9.91,6.59-9.41c13.62,0.73,27.25,1.32,40.86,2.15c6.15,0.38,12.28,1.06,18.38,1.86
		c3.86,0.51,6.32-0.49,7.38-4.33c1.1-3.98,2.16-8,3.74-11.81c1.22-2.94,3.51-5.44,4.78-8.37c2.55-5.87,4.62-11.93,7.15-17.8
		c0.38-0.87,2.22-1.65,3.35-1.6c2.11,0.09,4.19,0.83,6.26,1.29c2.08-5.55,2.08-5.54,8.46-5.55c3.02,0,6.04,0.03,9.06-0.05
		c2.2-0.05,4,0.07,4.02,2.96c0.02,2.78-1.54,3.16-3.88,3.11c-4.46-0.1-8.92-0.05-13.38-0.03c-0.62,0-1.25,0.23-2.96,0.57
		c2.13,0.87,3.23,1.37,4.37,1.78c5.3,1.88,5.96,3,4.11,8.32c-2.23,6.43-4.75,12.78-7.01,19.2c-1.46,4.14-2.7,8.35-4.39,13.67
		c4.02,0,7.51-0.01,11,0c1.73,0.01,3.72-0.47,5.11,0.2c1.83,0.89,4.45,2.7,4.45,4.1c-0.01,1.79-2,4.7-3.68,5.13
		c-4.15,1.06-8.62,1.38-12.95,1.3c-9.77-0.19-19.54-0.71-29.29-1.26c-19.51-1.1-39.02-2.31-58.53-3.48
		c-1.13-0.07-2.26-0.12-3.65-0.19c-0.41,1.96-0.79,3.77-1.29,6.13c2.31,0.63,4.67,1.27,7.02,1.92c0,0.25,0,0.51,0,0.76
		c-2.39,0.27-4.79,0.53-7.18,0.8c-0.02,0.36-0.03,0.71-0.05,1.07c0.84,0.32,1.65,0.71,2.51,0.94c2.16,0.56,5.66-1.37,5.75,2.97
		c0.1,4.35-3.33,2.87-5.59,3.06c-2.25,0.2-3.25,1.01-3.41,3.33c-0.2,2.86,0.76,4.24,3.78,4.11c0.86-0.04,1.97-0.31,2.54,0.09
		c1.06,0.75,2.5,1.92,2.5,2.91c0,0.99-1.39,2.33-2.5,2.87c-1.05,0.51-2.8-0.23-3.76,0.35c-1.16,0.7-2.25,2.08-2.6,3.36
		c-0.52,1.87,0.01,3.67,2.65,3.76c0.86,0.03,1.72,0.12,2.58,0.1c2.03-0.05,3.71,0.12,3.79,2.77c0.08,2.79-1.51,3.08-3.82,3.22
		c-1.7,0.1-4.71,0.77-4.79,1.43c-0.21,1.9,0.93,3.9,1.24,5.91c0.29,1.94,1.01,4.41,0.12,5.8c-1.85,2.9-1.79,5.11,0.09,7.87
		c0.76,1.11,1.12,3.4,0.46,4.35c-2.88,4.1-1.76,7.7,0.93,11.51c0.33-0.21,0.73-0.55,1.2-0.76c1.2-0.55,2.42-1.08,3.67-1.5
		c0.07-0.02,0.95,1.35,0.75,1.66c-0.76,1.2-1.57,2.7-2.77,3.25c-5.2,2.39-5.22,2.28-3.64,8.39c1.56,6.02,2.82,12.13,4.6,18.09
		c2.96,9.9,10.13,16.31,20.1,18.56c8.44,1.91,17.31,2.26,26.02,2.71c8.51,0.44,14.25-4.94,19.81-10.27
		c7.74-7.42,9.83-17.33,12.09-27c2.42-10.36,4.31-20.84,6.02-31.34c1.05-6.46,1.22-13.05,1.96-19.57
		c0.75-6.59,1.83-13.14,2.57-19.72c0.29-2.58,0.05-5.21,0.05-7.92c-12.45-0.52-24.62-0.88-36.77-1.58
		c-11.92-0.68-23.82-1.7-35.73-2.57c0.03-0.56,0.06-1.12,0.09-1.69c3.44,0,6.88-0.14,10.31,0.02c19.8,0.95,39.61,1.95,59.4,3.01
		c2.71,0.15,3.63-0.98,3.55-3.37c-0.04-1.01-0.01-2.03-0.01-3.04C276.53,369.66,277.03,369.65,277.53,369.65z M285.01,360.76
		c-28.04,0-55.97,0-83.91,0c4.42,0.96,8.84,1.39,13.27,1.68c12.19,0.8,24.37,1.73,36.57,2.22c10.05,0.4,20.12,0.3,30.18,0.31
		C283.98,364.98,286.46,364.3,285.01,360.76z M278.21,320.45c-0.65-0.25-1.29-0.5-1.94-0.75c-0.6,1.08-1.33,2.11-1.76,3.24
		c-2.66,7.05-5.37,14.09-7.83,21.21c-0.96,2.79-2.26,4.2-5.53,3.65c-2.23-0.37-4.72-0.59-6.81,0.04c-1.31,0.4-2.22,2.42-2.95,3.88
		c-0.12,0.25,1.83,2.11,2.37,1.94c4.11-1.35,8.25-1.57,12.53-1.43c0.68,0.02,1.65-2.01,2.11-3.23c2-5.35,3.91-10.74,5.77-16.14
		C275.58,328.75,276.87,324.59,278.21,320.45z M259.9,327.03c3.26,0,6.35,0.21,9.38-0.14c0.81-0.09,1.98-1.88,1.97-2.89
		c-0.01-1.02-1.06-2.68-1.99-2.95C263.96,319.52,261.71,320.95,259.9,327.03z M254.05,341.1c3.96-0.61,7.08-0.95,10.09-1.73
		c0.37-0.1,0.55-3.48,0.05-3.7c-2.12-0.94-4.53-1.25-6.45-1.71C256.44,336.45,255.57,338.14,254.05,341.1z"/>
	<path d="M293.65,441.3c-14.06-6.51-18.99-17.66-9.13-33.35c-2.69-0.74-7.21-0.17-5.39-4.83c0.46-1.19,3.22-1.53,5.33-2.43
		c0.53,2.46,0.84,3.9,1.15,5.36c8.82-3.31,18.64-6.52,25.17,1.8c9.02,11.49,8.56,20.41,1.45,27.43c1.34,1.85,2.71,3.72,4.24,5.83
		c-3.2,0.68-5.93,1.25-8.66,1.83c-0.1-0.22-0.21-0.43-0.31-0.65c0.83-0.4,1.66-0.8,2.52-1.22c-2.13-2.49-9.35-1.02-10.05,2.24
		c-0.75,3.5-2.49,4.38-5.95,4.32c-8.37-0.14-8.71,0.41-7.26,8.47c0.1,0.53,0.35,1.04,0.72,2.09c4.48,0,9.05,0.11,13.6-0.11
		c0.78-0.04,2.07-1.49,2.13-2.35c0.17-2.59-0.2-5.21-0.24-7.82c-0.01-0.69,0.28-1.48,0.7-2.04c0.19-0.25,1.3-0.28,1.5-0.03
		c0.44,0.54,0.78,1.32,0.8,2.01c0.17,7.14,0.31,14.28,0.35,21.41c0.01,1.17-0.43,2.37-0.85,3.5c-0.09,0.24-1.43,0.36-1.48,0.24
		c-0.46-1.08-0.84-2.2-1.08-3.34c-0.1-0.5,0.2-1.07,0.3-1.62c1.21-7.09,0.87-7.46-6.58-7.41c-1.44,0.01-2.87-0.04-4.31-0.08
		c-5.95-0.16-6.87,1.07-5.8,6.92c0.34,1.85-0.14,3.85-0.36,5.76c-0.01,0.07-1.26,0.01-1.93,0.01c0.02-1.92,0.03-3.84,0.06-5.76
		c0.01-0.7,0.11-1.39,0.11-2.09c0-4.95,0-9.9-0.01-14.86c0-1.72-0.24-3.48,0.02-5.16C285.2,440.33,289.65,442.02,293.65,441.3z
		 M292.04,432.8c1.82-6.06,8.23-7.26,16.01-2.74c2.18-5.02,2.48-9.89,0.02-14.83c-2.07-4.18-6-6.42-10.8-6.11
		c-4.96,0.32-7.4,2.33-8.94,7.37c-0.41,1.34-0.77,2.68-1.2,4.01C285.56,425.34,287.41,429.99,292.04,432.8z"/>
	<path d="M350.14,427.05c0-6.09-0.02-12.19,0-18.28c0.02-6.22,0.22-6.36,6.81-4.88c0,12.2,0,24.44,0,36.81
		c-3.5,1.2-5.87,0.26-8.1-2.61c-5.01-6.45-10.37-12.65-15.55-18.99c-0.52-0.63-0.72-1.5-1.08-2.27c-0.52,0.27-1.04,0.54-1.56,0.82
		c0,7.68,0,15.37,0,23.27c-2.63,0-4.59,0-6.87,0c0-12.44,0-24.9,0-37.49c3.25-0.87,5.48-0.08,7.54,2.52
		c5.75,7.27,11.77,14.34,17.69,21.49C349.4,427.31,349.77,427.18,350.14,427.05z"/>
	<path d="M272.02,555.7c0.77,5.08,1.54,10.16,2.31,15.24c-0.46,0.21-0.91,0.42-1.37,0.62c-3.81-1.75-7.52-3.77-11.45-5.19
		c-9.07-3.27-12.61-10.22-14.28-18.75c-0.42-2.13-1.74-4.09-2.61-6.14c-1.73-4.09-0.45-5.98,4.08-6.02
		c4.31-0.03,8.63,0.07,12.94-0.07c2.49-0.08,3.73,1.07,3.12,3.2c-0.33,1.15-1.85,2.47-3.07,2.78c-1.86,0.47-3.95,0.12-6.18,0.61
		c8.37,1.58,13.02,7.09,16.58,13.8L272.02,555.7z"/>
	<path d="M116,321.14c4.87-0.21,9.75-0.21,14.63-0.1c0.95,0.02,2.02,0.73,2.8,1.38c1.61,1.34,3.07,2.86,4.61,4.33
		c-0.4,0.09-1.46,0.34-3.45,0.81c2.36,3.4,4.5,6.33,6.45,9.38c0.63,0.98,1.25,2.32,1.08,3.36c-1.31,7.71-2.82,15.39-4.41,23.81
		c-1.97-1.15-2.83-1.66-4.1-2.4c-0.37,3.55-0.9,7.09-5.67,4.87c-0.68-0.32-1.18-2.89-0.73-3.28c1.52-1.29,3.51-2.07,5.85-3.33
		c-2.41-2.8-5.02-5.74-7.5-8.77c-0.59-0.72-0.83-1.75-1.11-2.67c-0.11-0.35,0.27-0.83,0.19-1.19c-1.9-8,1.78-14.04,7.78-19.29
		c-0.18-0.38-0.36-0.76-0.54-1.15"/>
	<path d="M159.15,509.03c-2.72,0.13-5.43,0.35-8.15,0.37c-2.02,0.02-3.57,0.09-3.92,2.69c-0.13,0.96-1.84,2.26-2.97,2.42
		c-2.53,0.36-5.2,0.38-7.72-0.03c-1.08-0.18-2.81-1.93-2.66-2.67c0.24-1.18,1.62-2.53,2.85-3.02c1.32-0.52,3.02-0.12,3.65-0.12
		c-3.57-3.41-8.1-6.51-10.83-10.71c-2.6-4-3.31-9.15-4.84-13.78c4.63,0.57,8.1,1.33,11.57,1.35c5.18,0.03,8.87,2.58,11.87,6.11
		c4.23,4.99,8.09,10.27,12.11,15.43C159.78,507.72,159.47,508.38,159.15,509.03z"/>
	<path d="M178.52,302.84c6.64-6.99,12.76-14.66,23.28-16.64c0.97-0.18,2.15-0.78,2.9-0.45c5.05,2.22,5.15-0.85,4.78-4.93
		c6.39,0,12.51-0.1,18.62,0.14c0.74,0.03,1.99,1.94,1.95,2.93c-0.04,0.97-1.34,2.59-2.25,2.69c-2.97,0.35-6.07,0.5-9.02,0.08
		c-4.69-0.67-6.4,1.74-7.22,5.54c-0.33,1.55-0.22,3.75-1.23,4.52c-4.54,3.48-7.72,9.32-14.69,8.9c-5.67-0.34-11.33-0.94-17-1.43
		C178.61,303.74,178.57,303.29,178.52,302.84z"/>
	<path d="M157.27,387.97c4.83,0,9.38,0.11,13.93-0.04c2.54-0.08,3.61,0.64,3.58,3.28c-0.03,2.65-1.46,2.88-3.58,2.84
		c-4.16-0.09-8.33,0.13-12.47-0.14c-1.7-0.11-3.34-1.15-5.98-2.13c-3.73,1.66-8.76,3.88-13.94,6.18
		c-1.25-9.13,2.14-23.1,11.01-27.39c2.02-0.98,3.36-3.21,5.31-4.42c0.82-0.5,3.44,0.03,3.48,0.33c0.62,4.08,1.31,8.22,1.16,12.32
		C159.68,381.61,158.31,384.37,157.27,387.97z"/>
	<path d="M240.16,574.31c-1.35,1.14-2.62,2.37-4.06,3.39c-3.11,2.21-6.17,4.53-9.48,6.42c-6.58,3.76-17.33,2.38-21.73-3.12
		c-1.5-1.88-4.52-2.61-7.25-4.09c5.88-3.42,10.78-6.77,16.13-9.16c2.31-1.03,5.68-0.54,8.37,0.1c5.81,1.37,11.48,3.28,17.21,4.97
		C239.61,573.32,239.89,573.81,240.16,574.31z"/>
	<path d="M114.91,440.74c4.34,1.39,8.73,2.1,12.29,4.15c2.96,1.71,5.65,4.67,7.21,7.69c2.98,5.78,5.08,12,7.6,18.18
		C127.1,472.42,108.27,460.75,114.91,440.74z"/>
	<path d="M271.63,578.47c-1.85,3.53-3.44,7.23-5.66,10.52c-1.12,1.66-3.33,2.68-5.15,3.84c-6.56,4.2-13.33,6.13-20.86,2.07
		c-2.42-1.31-5.2-1.98-8.42-3.16c2.83-2.61,5.63-4.41,7.33-6.92c4.41-6.51,10.99-7.07,17.91-6.95c4.98,0.09,9.96,0.47,14.93,0.72
		C271.73,578.59,271.63,578.47,271.63,578.47z"/>
	<path d="M246.14,568.26c-19.83-9.3-23.87-16.95-23.46-33.61c5.44,1.55,11.33,2.12,15.79,4.86c3.14,1.93,5.37,6.6,6.2,10.42
		C245.97,555.88,245.73,562.14,246.14,568.26z"/>
	<path d="M432.83,520.81c-1.31,7.18,1.02,14.95-4.37,20.75c-4.75,5.11-10.25,9.56-15.74,14.61
		C405.48,536.48,413.93,522.15,432.83,520.81z"/>
	<path d="M183.52,538.59c-4.5,1.32-8.77,2.76-13.14,3.82c-6.52,1.58-12.23-1.23-17.95-3.62c-0.97-0.41-1.78-1.45-2.35-2.38
		c-1.89-3.04-3.68-6.15-5.43-9.27c-0.94-1.67-1.38-3.32,1.49-3.43c2.81-0.11,5.68,0.22,8.44-0.18c10.65-1.53,17.94,4.06,24.77,10.7
		C180.72,535.54,181.98,536.97,183.52,538.59z"/>
	<path d="M446.28,538.26c10.21-11.51,21.62-19,37.77-13.05C480.64,541.82,465.74,547.79,446.28,538.26z"/>
	<path d="M158.96,466.12c4.31,2.28,8.53,3.32,10.62,5.95c2.41,3.04,3.61,7.4,4.15,11.34c1.18,8.55-1.55,14.93-8.34,21.94
		c-4.13-7.66-10.9-14.27-10.04-23.64C155.83,476.49,157.69,471.39,158.96,466.12z"/>
	<path d="M389.18,572.66c5.34-1.39,10.68-2.8,16.04-4.15c6.02-1.52,11.62-0.5,16.85,2.72c2.72,1.68,5.5,3.27,8.26,4.89
		c-9.31,11.22-20.05,13.07-30.18,6.38c-4.07-2.69-7.27-6.6-10.87-9.96C389.29,572.54,389.18,572.66,389.18,572.66z"/>
	<path d="M514.8,440.66c4.27,18.66-5.84,28.91-26.31,29.93C490.96,455.41,497.73,443.88,514.8,440.66z"/>
	<path d="M481.67,468.72c-15.26-10.17-19.94-25.36-4.93-38.7C488.77,441.6,488.76,454.76,481.67,468.72z"/>
	<path d="M218.45,555.93c-14.21-8.37-24.65-17.69-20.57-34.59c13.04,1.94,20.53,5.26,21.27,20.4
		C219.38,546.25,218.73,550.79,218.45,555.93z"/>
	<path d="M406.77,534.73c1.08,16.06-6.89,28.27-21.51,33.3C380.58,549.59,386.73,536.65,406.77,534.73z"/>
	<path d="M356.18,571.22c-1.12-20.25,8.14-30.91,27.17-29.12C382.95,556.53,373.93,566.29,356.18,571.22z"/>
	<path d="M439.48,534.15c-9.7-17.83-4.56-32.3,13.41-36.91C458.42,512.74,452,524.4,439.48,534.15z"/>
	<path d="M469.29,466.48c9.66,14.58,3.88,26.96-5.43,38.82C452.45,492.35,450.82,475.3,469.29,466.48z"/>
	<path d="M392.66,429.3c1.09,6.85,7.48,9.51,12.59,5.68c2.54-1.9,4.57-1.64,7-0.4c-2.74,5.66-9.81,8.3-16.9,6.44
		c-6.34-1.67-10.9-8.03-10.46-14.59c0.53-7.72,6-13.15,13.64-13.53c8.6-0.43,14.9,4.38,16.25,12.26c0.52,3.06-0.39,4.31-3.79,4.19
		C405.01,429.15,399,429.3,392.66,429.3z M392.45,424.59c5.09,0,9.86,0,14.65,0c-0.36-4.5-2.53-6.67-6.6-6.9
		C395.76,417.41,393.65,419.06,392.45,424.59z"/>
	<path d="M145.91,427.02c0.49,2.22,0.95,4.31,1.41,6.39c-4.85,1.14-8.55-0.67-8.93-4.55c-0.45-4.69-0.58-9.49-0.04-14.16
		c0.7-6,3.56-11.03,9.01-14.5c1.62-1.03,2.73-2.79,4.08-4.21c5.68,5.03,5.62,10.92,5.43,17.48
		C156.66,421.59,148.25,422.03,145.91,427.02z"/>
	<path d="M157.7,320.62c1.63-1.88,3.29-3.74,4.9-5.64c2.41-2.86,4.78-5.75,7.91-8.13c-1.06,1.62-2.12,3.23-3.55,5.41
		c5.92-1.64,11.15-3.08,17.13-4.73c-0.47,4.72-0.95,9.5-1.34,13.36c-6.79,10.07-16.5,12.2-27.9,11.27c1.89-3.82,3.67-7.4,5.32-10.73
		c-0.86-0.36-1.58-0.66-2.31-0.97C157.86,320.47,157.7,320.62,157.7,320.62z"/>
	<path d="M106.91,407.02c-0.4-1.64-0.81-3.33-1.22-5.03c0.27-0.21,0.55-0.42,0.82-0.63c0.89,0.72,1.78,1.44,2.74,2.22
		c1.05-1.53,2.41-4.1,3.94,1.14c0.59-2.12,0.9-3.23,1.12-4c16.53,4.66,17.64,17.97,18.88,31.45c-8.21-1.02-14.53-4.67-18.64-11.74
		c-0.38-0.66-1.27-1.05-1.63-1.71c-0.68-1.27-1.28-2.62-1.65-4c-0.15-0.54,0.51-1.24,0.59-1.89
		C112.49,407.72,112.1,407.27,106.91,407.02z"/>
	<path d="M445.91,442.24c-3.31-1.47-5.73-2.55-8.22-3.65c-3.1,0.81-6.79,2.27-10.59,2.63c-4.47,0.42-8.37-3.15-9.04-7.29
		c-0.6-3.68,1.92-7.85,6.26-8.83c4.07-0.92,8.38-0.82,13.58-1.25c-0.89-1.79-1.3-4.39-2.79-5.27c-4.37-2.58-8.8-0.95-13.06,1.38
		c-2.43-2.51-2.53-4.7,1.11-5.39c4.27-0.81,8.71-1.39,13.02-1.12c4,0.25,7.05,3.17,7.65,6.97
		C444.9,427.04,445.16,433.79,445.91,442.24z M432.4,427.76c-5.2-0.11-7.58,1.3-7.64,4.46c-0.06,3.34,2.2,4.24,5.08,4.34
		c4.18,0.16,7.4-2.08,7.62-5.19C437.74,427.31,434.62,427.99,432.4,427.76z"/>
	<path d="M472.18,321.54c-0.84-0.18-1.67-0.37-3-0.66c1.8,3.74,3.5,7.29,5.24,10.91c-16.51,2.3-30.28-4.64-28.28-24.45
		c5.43,1.98,10.5,4.5,15.88,5.58c4.64,0.93,6.05,4.84,9.25,6.96C471.58,320.43,471.88,320.99,472.18,321.54z"/>
	<path d="M173.84,300.29c-4.56-15.57-3.89-29.7,17.85-33.44c-0.31,5.72,0.43,11.59-1.25,16.72c-1.28,3.89-5.49,6.96-8.67,10.14
		C179.42,296.06,176.63,298,173.84,300.29z"/>
	<path d="M140.31,366.73c1.42-3.59,3.24-7.08,4.17-10.78c2.31-9.19,7.48-15.71,16.88-18.81c0.66-0.22,1.23-0.71,1.87-1.01
		c0.49-0.23,1.04-0.36,1.56-0.53c3.47,9.94,1.11,18.27-5.1,23.62c-3.92,3.37-8.25,4.54-12.9,5.68c-2.21,0.54-4.39,1.15-6.59,1.73
		C140.2,366.63,140.31,366.73,140.31,366.73z"/>
	<path d="M157.86,320.47c-2.64,2.97-5.28,5.95-7.84,8.83c-5.52-5.6-7.19-12.92-5.92-20.22c1.32-7.58,6.4-13.05,14.5-14.75
		c0.87,2.09,1.78,4.3,2.69,6.5l-0.1-0.13c2.25,7.2-0.04,13.66-3.49,19.92C157.7,320.62,157.86,320.47,157.86,320.47z"/>
	<path d="M119.79,361.35c14.72,14.03,14.04,20.37,10.72,36.03c-7.07-4.33-14.72-8.01-15.78-17.3
		C113.97,373.39,115.9,367.34,119.79,361.35z"/>
	<path d="M438.57,267.23c16.42,1.22,24.05,16.2,16.48,32.32C439.31,288.16,437.05,283.73,438.57,267.23z"/>
	<path d="M472.18,321.54c-0.3-0.55-0.6-1.11-0.9-1.66c-2.53-5.64-4.98-11.28-2.89-17.66c0.86-2.64,1.49-5.35,2.22-8.03
		c16.72,6.56,19.41,19.45,8.89,35.33C477.08,326.89,474.63,324.21,472.18,321.54z"/>
	<path d="M451.3,303.5c-23.75,3.68-33.25-0.77-34.36-15.63C432.81,283.59,442.65,292.13,451.3,303.5z"/>
	<path d="M498.55,397.63c-3.26-13.62-2.82-26.1,10.57-34.61C519.25,373.97,517.56,388.06,498.55,397.63z"/>
	<path d="M491.05,397.27c-17.85-2.2-26.44-16.53-18.98-30.68C487.04,371.7,491.26,383.21,491.05,397.27z"/>
	<path d="M495.61,326.85c13.21,9.67,12.28,24.35-2.58,35.95C486.15,350.28,484.84,338.12,495.61,326.85z"/>
	<path d="M486.94,364.95c-18.69-1.09-27.73-12.74-22.54-28.61C480.29,339.6,485.1,351.19,486.94,364.95z"/>
	<path d="M496.85,431.89c-0.88-14.42,3.63-25.61,18.01-31.3C521.85,414.53,516.7,427.2,496.85,431.89z"/>
	<path d="M237.21,243.61"/>
	<path d="M477.2,396.55c14.05,7.39,15.62,19.59,13.23,33.22C473.43,424.63,467.38,408.88,477.2,396.55z"/>
	<path d="M373.58,404.71c0.06,1.28,0.24,2.66,0.16,4.03c-0.15,2.66,0.16,4.7,3.78,4.57c0.72-0.03,2.23,1.7,2.08,2.33
		c-0.23,0.99-1.54,2.45-2.43,2.47c-3.04,0.1-3.53,1.7-3.45,4.1c0.08,2.37-0.05,4.74,0.02,7.11c0.16,5.97,0.76,6.43,7.12,5.49
		c0.39,1.53,0.78,3.09,1.28,5.07c-2.13,0.51-3.87,1.12-5.66,1.31c-6.9,0.75-9.28-1.17-9.63-7.87c-0.18-3.48,0-6.98-0.07-10.46
		c-0.04-1.95,0.73-4.35-2.62-4.82c-0.22-0.03-0.21-4.54,0.09-4.59c3.06-0.48,2.48-2.59,2.55-4.47
		C367,403.57,367.83,403.01,373.58,404.71z"/>
	<path d="M171.25,581.62c-6.6,0-13.2-0.02-19.8,0.01c-2.19,0.01-4.07-0.16-4.04-3c0.03-2.88,2.02-2.9,4.14-2.9
		c13.34,0.01,26.68,0.02,40.02,0c2.04,0,3.68,0.17,3.76,2.8c0.08,2.83-1.58,3.13-3.86,3.11
		C184.74,581.58,177.99,581.62,171.25,581.62z"/>
	<path d="M271.93,527.99c-5.61,0-11.21-0.01-16.82,0.01c-2.18,0.01-4.1-0.15-4.06-3.01c0.03-2.56,1.71-2.87,3.77-2.87
		c11.36,0,22.72,0,34.08-0.07c2.28-0.01,3.53,0.65,3.51,3.08c-0.02,2.51-1.48,2.96-3.65,2.93c-5.61-0.06-11.22-0.02-16.82-0.02
		C271.93,528.02,271.93,528,271.93,527.99z"/>
	<path d="M218.9,273.03c4.51-2.67,8.95-5.61,13.68-8.02c4.93-2.51,9.71-1.47,14.13,1.66c1.55,1.1,3.35,1.84,4.96,2.87
		c0.51,0.32,1.05,1.07,1.01,1.57c-0.04,0.4-0.9,0.85-1.48,1.06c-1.13,0.41-2.61,0.35-3.45,1.05c-5.43,4.54-11.46,4.47-17.86,2.64
		C226.26,274.83,222.57,273.97,218.9,273.03z"/>
	<path d="M407.43,273.01c-10.18,4.58-20.23,6.68-29.28-2.35C387.53,260.65,397.95,261.5,407.43,273.01z"/>
	<path d="M150.75,554.81c-4.45,0-8.9-0.02-13.36,0.01c-2.06,0.01-3.74-0.26-3.79-2.83c-0.05-2.44,1.33-3.08,3.54-3.08
		c9.19,0.02,18.38-0.11,27.57,0.09c1.07,0.02,2.7,1.62,3.02,2.76c0.63,2.23-0.82,3.18-3.2,3.12c-4.59-0.11-9.19-0.03-13.79-0.03
		C150.75,554.84,150.75,554.82,150.75,554.81z"/>
	<path d="M157.56,568.22c-4.45,0-8.89-0.03-13.34,0.01c-2.09,0.02-3.7-0.33-3.74-2.86c-0.04-2.44,1.32-3.07,3.54-3.06
		c9.03,0.04,18.07,0.03,27.1-0.01c2.13-0.01,3.6,0.37,3.69,2.9c0.09,2.88-1.7,3.07-3.92,3.05
		C166.45,568.2,162.01,568.23,157.56,568.22z"/>
	<path d="M304.67,371.22c-2.05,0-4.1,0-6.14,0c-2.41,0-3.38,0.64-3.22,3.48c0.39,6.84,0.13,13.71,0.13,20.62
		c-2.64-0.57-4.46-1.19-6.3-1.29c-2.12-0.12-3.65-0.4-3.68-2.93c-0.02-2.4,1.18-3.2,3.48-3.1c1.25,0.05,2.52-0.12,4-0.2
		c0-3.69,0-7.13,0-10.57c0.2,4.06-2.84,3.74-5.24,3.2c-1-0.23-2.33-2.44-2.11-3.46c0.22-0.99,2.17-1.72,3.47-2.37
		c1.22-0.62,2.58-0.99,3.88-1.47c-1.38-0.61-2.71-1.46-4.17-1.77c-1.67-0.35-3.45-0.23-5.18-0.31c0.02-0.39,0.05-0.78,0.07-1.18
		c7.03,0,14.07,0,21.1,0C304.73,370.33,304.7,370.78,304.67,371.22z"/>
	<path d="M279.38,495.23c3.43,0,6.87,0.05,10.3-0.02c2.16-0.04,3.55,0.78,2.87,2.9c-0.38,1.2-1.74,2.97-2.71,3
		c-7.29,0.22-14.59,0.2-21.88-0.09c-1.07-0.04-2.07-1.89-3.1-2.91c1.12-0.93,2.16-2.56,3.36-2.67c3.68-0.35,7.43-0.13,11.15-0.13
		C279.38,495.29,279.38,495.26,279.38,495.23z"/>
	<path d="M292.07,340.33c-3.29,0-6.62,0.24-9.87-0.13c-1.17-0.13-2.78-1.58-3.1-2.72c-0.66-2.29,0.93-3.11,3.24-3.08
		c6.73,0.07,13.46,0.06,20.19,0.03c2.18-0.01,3.61,0.57,3.58,3.03c-0.03,2.53-1.64,2.9-3.73,2.88c-3.44-0.04-6.87-0.01-10.31-0.01
		C292.07,340.32,292.07,340.33,292.07,340.33z"/>
	<path d="M206.49,273.37c-2.29,0-4.58-0.09-6.87,0.02c-2.37,0.12-3.77-0.36-3.72-3.14c0.05-2.54,1.31-2.98,3.5-2.93
		c4.58,0.09,9.16,0.17,13.73-0.03c2.85-0.12,3.29,1.38,3.49,3.55c0.24,2.6-1.45,2.57-3.27,2.55
		C211.07,273.35,208.78,273.37,206.49,273.37z"/>
	<path d="M288.87,353.73c-2.15,0-4.3-0.05-6.45,0.01c-2.12,0.06-3.64-0.34-3.69-2.88c-0.05-2.47,1.26-3.08,3.49-3.06
		c4.59,0.05,9.18,0.06,13.76-0.05c2.35-0.06,3.43,0.79,3.41,3.14c-0.02,2.5-1.46,2.99-3.64,2.91c-2.29-0.09-4.59-0.02-6.88-0.02
		C288.87,353.77,288.87,353.75,288.87,353.73z"/>
	<path d="M137.37,535.52c2.14,0,4.36-0.33,6.4,0.12c1.22,0.27,2.15,1.77,3.21,2.72c-1.01,1-1.97,2.8-3.05,2.87
		c-4.69,0.33-9.43,0.35-14.12,0.05c-1.12-0.07-2.13-1.8-3.19-2.77c1.02-1.01,1.91-2.68,3.08-2.9c2.48-0.45,5.12-0.14,7.69-0.14
		C137.37,535.5,137.37,535.51,137.37,535.52z"/>
	<path d="M130.11,527.98c-2.43,0-4.93,0.33-7.25-0.14c-1.18-0.24-2.57-1.8-2.85-2.99c-0.16-0.67,1.7-2.53,2.73-2.6
		c4.84-0.3,9.71-0.33,14.55-0.03c1.01,0.06,2.48,1.86,2.66,3.01c0.12,0.79-1.52,2.47-2.57,2.66c-2.35,0.41-4.83,0.13-7.26,0.13
		C130.11,528.01,130.11,528,130.11,527.98z"/>
	<path d="M309.51,395.26c0-8.63,0-17.26,0-25.9c0.48-0.03,0.95-0.06,1.43-0.08c0.26,3.28,0.52,6.56,0.71,8.96
		c3.28-0.55,6.41-1.37,9.55-1.43c1.15-0.02,3.18,1.66,3.35,2.77c0.79,5.22,1.06,10.51,1.52,15.77c-0.63,0.06-1.26,0.13-1.89,0.19
		c-0.22-0.93-0.6-1.85-0.64-2.78c-0.1-2.79,0.01-5.58-0.1-8.37c-0.12-2.93-0.6-5.69-4.59-5.81c-3.24-0.1-7.1,2.73-7.38,5.73
		c-0.22,2.35,0.05,4.73,0,7.1c-0.03,1.29-0.29,2.58-0.45,3.87C310.52,395.26,310.01,395.26,309.51,395.26z"/>
	<path d="M310.99,462.11c-0.29-4.93,3.29-8.35,9.16-8.76c5.46-0.38,10.02,3.81,10.32,9.47c0.29,5.61-3.68,9.95-9.42,10.27
		C314.46,473.47,311.47,470.2,310.99,462.11z M328.22,463.4c0.08-4.4-3-8.02-6.87-8.07c-3.8-0.05-7.98,3.89-8.18,7.7
		c-0.21,4,3.83,8.22,7.92,8.28C324.94,471.38,328.13,467.84,328.22,463.4z"/>
	<path d="M393.04,468.53c-1.56,4.01-5.63,5.58-10.01,4.2c-4.76-1.49-7.59-6.2-6.76-11.26c0.81-4.96,4.75-8.14,9.89-8.01
		c5.59,0.14,8.69,3.37,9.44,10.26c-5.55,0-11.08,0-16.6,0c-0.34,0.39-0.68,0.79-1.01,1.18c1.46,1.92,2.53,4.44,4.46,5.64
		C386.27,472.91,389.85,471.22,393.04,468.53z M378.78,462.27c4.47,0,8.6,0.01,12.72-0.02c0.53,0,1.06-0.22,1.56-0.33
		c-0.36-4.17-3.07-6.93-6.87-7.12C382.37,454.61,379.46,457.35,378.78,462.27z"/>
	<path d="M349.76,386.9c-5.68,0-11.07,0-16.44,0c-0.04,7.37,4.34,8.86,14.03,5.19c-1.73,3.51-5.83,4.89-10.27,3.44
		c-4.63-1.51-7.45-6.43-6.49-11.34c0.88-4.5,5.24-8.02,9.76-7.89C345.83,376.46,349.14,379.94,349.76,386.9z M333.05,384.94
		c5.02,0,9.74,0,14.52,0c-0.87-4.42-3.8-7.15-7.34-7.14C336.65,377.8,333.86,380.45,333.05,384.94z"/>
	<path d="M195.63,456.85c-6.6,0.75-8.17,0.07-8.47-3.39c-0.34-3.9,2.57-7.11,6.51-7.24c2.36-0.08,3.73,0.62,3.88,3.23
		c0.19,3.13,0.85,6.23,1.15,9.36c0.06,0.64-0.58,1.35-0.89,2.03c-0.6-0.44-1.41-0.76-1.73-1.34
		C195.71,458.82,195.79,457.92,195.63,456.85z"/>
	<path d="M222.54,481.08c0.06-3.23,2.76-6.61,5.22-6.55c3.55,0.09,6.71,3.29,6.54,6.87c-0.17,3.42-2.47,4.79-5.74,4.78
		C225.08,486.19,222.49,483.92,222.54,481.08z"/>
	<path d="M174.4,420.71c-4.5,0-8.74,0-12.95,0c-1.19-5.7-0.95-6.01,4.47-6.01c2.71,0,5.42,0,8.48,0
		C174.4,416.76,174.4,418.48,174.4,420.71z"/>
	<path d="M279.04,300.11c-0.95-4.38,0.19-6.3,4.38-5.91c1.97,0.18,4.09-0.35,5.94,0.16c1.19,0.33,2.54,1.87,2.76,3.05
		c0.13,0.72-1.67,2.47-2.73,2.58C286.03,300.32,282.62,300.11,279.04,300.11z"/>
	<path d="M161.04,454.63c3.55,0.13,7.11,0.36,10.66,0.34c2.18-0.01,3.07,0.72,3.09,2.88c0.02,2.23-0.63,3.35-3.16,3.23
		c-3.13-0.15-6.27-0.04-9.83-0.04c-0.22-2.27-0.42-4.41-0.63-6.55C161.18,454.49,161.04,454.63,161.04,454.63z"/>
	<path d="M174.47,374.72c0,2.11,0,3.72,0,5.64c-4.28,0-8.34,0-12.73,0c0-1.78,0-3.6,0-5.64
		C165.91,374.72,169.97,374.72,174.47,374.72z"/>
	<path d="M278.39,541.4c-1.29,0-2.75,0.37-3.82-0.1c-1.15-0.51-2.66-1.79-2.68-2.76c-0.02-0.99,1.46-2.73,2.48-2.88
		c2.8-0.41,5.75-0.42,8.55-0.02c0.99,0.14,2.42,1.94,2.38,2.94c-0.04,0.98-1.52,2.3-2.66,2.75c-1.24,0.48-2.82,0.11-4.25,0.11
		C278.39,541.42,278.39,541.41,278.39,541.4z"/>
	<path d="M174.24,595.03c-1.89-0.74-6.06,1.91-6.12-2.89c-0.06-4.8,4.03-2.54,6.43-2.97c1.38-0.25,3.03-0.43,4.23,0.09
		c1.23,0.53,2.6,1.85,2.85,3.03c0.15,0.71-1.57,2.21-2.74,2.64C177.65,595.39,176.07,595.03,174.24,595.03z"/>
	<path d="M161.55,407.25c0-1.9,0-3.62,0-5.64c4.19,0,8.28,0,12.78,0c0,1.79,0,3.6,0,5.64C170.06,407.25,165.97,407.25,161.55,407.25
		z"/>
	<path d="M120.35,495.28c2.04,0.57,6.52-1.98,5.92,3.68c-0.01,0.14,0.04,0.31-0.03,0.41c-2.67,4-6.69,1.12-10.02,1.68
		c-0.96,0.16-2.26-1.61-3.4-2.5c0.93-1.09,1.64-2.6,2.84-3.16C116.81,494.85,118.45,495.28,120.35,495.28z"/>
	<path d="M271.66,514.6c-1.57,0-3.28,0.36-4.67-0.12c-0.98-0.34-2.11-1.84-2.11-2.82c0-0.99,1.22-2.73,2.07-2.82
		c3.1-0.34,6.29-0.34,9.4,0c0.85,0.09,2.08,1.83,2.08,2.81c0,0.98-1.12,2.49-2.1,2.83C274.94,514.97,273.24,514.6,271.66,514.6z"/>
	<path d="M352.07,454.1c0,6.03,0,12.06,0,18.49c-0.79-0.84-1.68-1.78-2.64-2.79c-1.15,0.79-2.23,1.71-3.47,2.34
		c-5.22,2.65-10.08,0.09-10.38-5.59c-0.22-4.13-0.04-8.27-0.04-12.41c0.56,0,1.11,0,1.67,0c0.17,3.48,0.37,6.95,0.51,10.43
		c0.13,3.41,0.62,6.63,5.13,6.77c3.65,0.12,7.02-3.08,7.25-6.93c0.2-3.42,0.04-6.86,0.04-10.29
		C350.79,454.13,351.43,454.11,352.07,454.1z"/>
	<path d="M299.33,367.14c-0.86,0-1.82,0.23-2.57-0.05c-1.37-0.52-2.61-1.34-3.91-2.04c1.2-1.22,2.18-3.03,3.64-3.51
		c1.95-0.65,4.33-0.61,6.38-0.2c1.24,0.25,2.87,1.59,3.18,2.73c0.61,2.24-0.96,3.24-3.28,3.11c-1.15-0.07-2.3-0.01-3.45-0.01
		C299.33,367.16,299.33,367.15,299.33,367.14z"/>
	<path d="M371.15,455.99c-2.18-0.42-4.48-1.44-6.5-1.07c-1.73,0.32-3.15,2.25-4.7,3.47c1.21,1.15,2.25,2.61,3.69,3.35
		c1.74,0.9,4.01,0.85,5.67,1.82c1.41,0.82,3.19,2.51,3.18,3.82c0,1.58-1.32,3.71-2.74,4.64c-3.53,2.32-8.64,1.29-12.45-2.27
		c2.74,0.67,4.97,1.43,7.27,1.71c2.69,0.33,5.8-0.12,5.89-3.23c0.04-1.33-2.73-2.96-4.5-4.02c-1.41-0.85-3.43-0.75-4.84-1.6
		c-1.29-0.77-3.03-2.3-2.95-3.39c0.11-1.64,1.22-3.86,2.62-4.67C364.34,452.49,368.07,452.97,371.15,455.99z"/>
	<path d="M245.05,483.4c-3.11,0.48-4.45-1.17-4.31-4.03c0.16-3.24,2.27-5.23,5.4-5.35c2.64-0.1,5.19,0.96,4.96,4.38
		C250.86,481.95,248.84,483.62,245.05,483.4z"/>
	<path d="M206.36,470.14c-0.89,0.5-2.43,2.03-4.05,2.12c-3.79,0.19-5.1-2.36-5.16-5.74c-0.06-2.9,1.46-4.52,4.28-4.72
		C203.7,461.63,206.51,465.76,206.36,470.14z"/>
	<path d="M206.65,486.82c-2.24-1.88-4.14-2.74-4.7-4.11c-0.82-2.03,2.94-5.76,5.39-5.2c1.5,0.34,3.9,2.65,3.66,3.38
		C210.33,482.87,208.49,484.48,206.65,486.82z"/>
	<path d="M220.46,472.79c-2.04-1.86-4.52-3.07-4.61-4.44c-0.15-2.21,1.06-4.73,4.34-4.58c3.2,0.15,4.79,2.42,4.81,4.92
		C225.02,469.85,222.49,471.05,220.46,472.79z"/>
	<path d="M222.88,486.35c-2.64,2.01-4.19,4.05-5.92,4.21c-1.27,0.12-3.68-2.07-3.98-3.54c-0.49-2.45,1.15-4.88,4.08-4.54
		C218.74,482.67,220.22,484.5,222.88,486.35z"/>
	<path d="M209.24,458.16c-1.43-2.07-2.56-2.97-2.65-3.97c-0.25-2.81,0.93-5.31,4.15-5.05c1.42,0.12,2.65,2.28,3.97,3.51
		C213.13,454.24,211.56,455.82,209.24,458.16z"/>
	<path d="M239.75,462.91c2.08,2.31,4.07,3.52,4.22,4.9c0.32,3.06-2.31,3.99-4.89,3.6c-1.4-0.21-2.6-1.65-3.89-2.54
		C236.47,467.21,237.74,465.55,239.75,462.91z"/>
	<path d="M302.39,563.76c-7.42,0-14.84,0-22.26,0c0-0.34,0-0.68,0-1.02c7.43,0,14.87,0,22.3,0
		C302.42,563.08,302.41,563.42,302.39,563.76z"/>
	<path d="M256.9,469.79c-2.48,1.8-3.98,3.51-5.8,3.94c-0.86,0.2-2.34-2.04-3.53-3.17c1.7-1.32,3.26-2.91,5.17-3.8
		C253.28,466.5,254.82,468.22,256.9,469.79z"/>
	<path d="M112.66,388.14c-0.06,2.9,1.02,5.72-3.19,5.79c-2.2,0.04-3.67-0.66-3.43-3.03C106.48,386.52,109.77,388.49,112.66,388.14z"
		/>
	<path d="M264.97,300.13c-3.15-0.53-6.48,1.74-7.08-2.68c-0.29-2.2,0.77-3.2,3.19-3.3C265.71,293.97,264.38,297.1,264.97,300.13z"/>
	<path d="M236.95,230.02"/>
	<path d="M113,378.49c-1.27,0.7-2.47,1.74-3.83,2.04c-2.33,0.51-3.81-0.8-3.2-3.02c0.32-1.15,1.9-2.59,3.06-2.74
		c1.21-0.15,2.6,1.1,3.92,1.73C112.96,377.16,112.98,377.82,113,378.49z"/>
	<path d="M320.1,405.47c-1.31,0.64-2.71,1.89-3.9,1.73c-1.07-0.15-2.46-1.73-2.74-2.9c-0.57-2.37,1.22-3.27,3.32-2.78
		c1.24,0.29,2.28,1.41,3.41,2.16C320.16,404.27,320.13,404.87,320.1,405.47z"/>
	<path d="M108.43,448.19c-0.85-1.19-2.17-2.28-2.46-3.59c-0.5-2.31,1.15-3.45,3.3-2.86c1.21,0.33,2.84,1.66,2.96,2.69
		c0.13,1.15-1.23,2.46-1.94,3.7C109.68,448.15,109.05,448.17,108.43,448.19z"/>
	<path d="M241.8,446.07c1.02,1.32,3.14,3.09,2.81,3.87c-0.66,1.56-2.52,2.93-4.21,3.63c-0.59,0.24-3.16-1.89-3.05-2.71
		c0.23-1.65,1.67-3.14,2.62-4.69C240.57,446.14,241.19,446.11,241.8,446.07z"/>
	<path d="M299.2,389.7c1.25-0.55,2.67-1.74,3.72-1.49c1.14,0.27,2.5,1.75,2.79,2.93c0.6,2.48-1.32,3.26-3.37,2.73
		c-1.23-0.32-2.2-1.58-3.29-2.42C299.1,390.86,299.15,390.28,299.2,389.7z"/>
	<path d="M294.65,474.86c-0.66-1.2-2.03-2.54-1.8-3.55c0.25-1.1,2.03-2.68,3.03-2.6c1.07,0.08,2.66,1.77,2.8,2.9
		c0.12,1.01-1.42,2.21-2.23,3.32C295.84,474.91,295.24,474.88,294.65,474.86z"/>
	<path d="M117.36,481.35c0.74,1.26,2.15,2.6,2.01,3.76c-0.13,1.01-1.89,2.27-3.15,2.59c-2.18,0.56-3.83-0.63-3.29-2.92
		c0.3-1.3,1.72-2.36,2.64-3.53C116.16,481.29,116.76,481.32,117.36,481.35z"/>
	<path d="M179.04,481.29c0.88,1.07,2.24,2.03,2.54,3.24c0.53,2.11-0.66,3.74-3.05,3.15c-1.22-0.3-2.75-1.66-2.99-2.77
		c-0.22-1.01,1.11-2.33,1.76-3.52C177.88,481.36,178.46,481.32,179.04,481.29z"/>
	<path d="M109.3,368.93c-1.67-2.45-3.19-3.71-3.12-4.87c0.06-0.99,1.82-2.37,3.07-2.7c2.2-0.58,3.69,0.7,3.18,2.96
		C112.16,365.54,110.96,366.57,109.3,368.93z"/>
	<path d="M272.08,555.77c-0.03-1.38,0-2.77-0.09-4.15c-0.19-2.7,1.69-3.21,3.6-2.63c1.21,0.37,2.84,1.91,2.81,2.9
		c-0.02,1.01-1.69,2.2-2.89,2.91c-0.98,0.59-2.33,0.6-3.51,0.89C272.02,555.7,272.08,555.77,272.08,555.77z"/>
	<path d="M226.33,596.72c-1.48-2.38-2.63-3.49-2.83-4.73c-0.38-2.44,1.57-3.29,3.51-2.71c1.14,0.34,2.53,1.96,2.59,3.07
		C229.66,593.38,228.1,594.49,226.33,596.72z"/>
	<path d="M261.64,288.46c-1.9-2.24-3.31-3.19-3.62-4.41c-0.55-2.18,0.82-3.68,3.13-3.12c1.22,0.3,2.77,1.65,3.01,2.76
		C264.38,284.69,263.02,286.02,261.64,288.46z"/>
	<path d="M178.31,341.93c-1.59-2.22-2.89-3.27-3.12-4.52c-0.46-2.44,1.45-3.39,3.48-2.82c1.23,0.35,2.78,1.86,2.9,2.97
		C181.66,338.57,180.02,339.76,178.31,341.93z"/>
	<path d="M115.07,340.95c-0.79-1.21-2.04-2.35-2.28-3.65c-0.5-2.74,1.55-2.92,3.77-2.99c2.63-0.08,3.43,1.32,2.88,3.31
		c-0.35,1.27-1.68,2.28-2.57,3.41C116.27,341,115.67,340.98,115.07,340.95z"/>
	<path d="M289.75,320.45c0.86,1.2,2.41,2.42,2.37,3.6c-0.03,0.99-1.76,2.43-3,2.77c-2.16,0.6-3.73-0.56-3.22-2.9
		c0.26-1.22,1.37-2.28,2.09-3.41C288.58,320.48,289.17,320.46,289.75,320.45z"/>
	<path d="M112.95,459.01c-1.2,0.66-2.32,1.65-3.61,1.92c-2.22,0.46-3.48-0.56-3.47-2.96c0.02-2.49,1.51-3.29,3.6-2.82
		c1.27,0.28,2.34,1.37,3.5,2.09C112.98,457.82,112.96,458.42,112.95,459.01z"/>
	<path d="M305.92,380.42c-2.28,0-3.94,0-6.14,0c-0.08-1.71-0.16-3.42-0.25-5.51c2.05,0,3.81,0,6.13,0
		C305.73,376.48,305.81,378.18,305.92,380.42z"/>
	<path d="M120.11,351.81c-1.32,0.66-2.57,1.61-3.96,1.9c-2.27,0.48-3.43-0.6-3.43-2.99c0-2.46,1.36-3.36,3.53-2.88
		c1.39,0.31,2.6,1.32,3.9,2.02C120.13,350.52,120.12,351.17,120.11,351.81z"/>
	<path d="M161.29,300.84c0.11-1.52-0.2-3.25,0.46-4.5c0.53-1,2.24-1.9,3.44-1.91c0.82,0,2.34,1.65,2.29,2.49
		c-0.06,1.08-1.17,2.44-2.22,3.03c-1.12,0.64-2.69,0.53-4.06,0.75C161.19,300.71,161.29,300.84,161.29,300.84z"/>
	<path d="M231.05,453.84c2.02,2.45,3.88,3.73,3.9,5.04c0.02,1.13-2.15,3.3-3.18,3.21c-1.53-0.13-3.59-1.62-4.11-2.99
		C227.32,458.17,229.28,456.44,231.05,453.84z"/>
	<path d="M207.84,461.27c3.58-3.25,6.37-3.98,10.09-0.01c-2.08,1.32-3.88,3.18-5.92,3.48C210.84,464.91,209.27,462.54,207.84,461.27
		z"/>
	<path d="M222.64,402.18c4.09,4.9,8.53,4.99,13.31,0.42c0.24,0.7,0.48,1.4,0.72,2.1c-1.54,1.19-3.06,3.33-4.64,3.37
		c-3.1,0.07-6.28-0.87-9.3-1.77c-0.59-0.17-0.62-2.09-0.91-3.2C222.1,402.8,222.37,402.49,222.64,402.18z"/>
	<path d="M196.62,466.85c-2.39,1.76-3.74,3.51-5.09,3.51c-1.07,0-3.19-2.41-2.97-3.29c0.36-1.42,2.11-2.87,3.62-3.47
		C192.85,463.33,194.39,465.14,196.62,466.85z"/>
	<path d="M192.69,494.89c0.68,1.1,2.08,2.38,1.85,3.24c-0.32,1.18-1.89,2.03-2.92,3.03c-0.83-1.01-2.2-1.96-2.33-3.04
		c-0.11-1,1.11-2.15,1.75-3.23C191.59,494.88,192.14,494.89,192.69,494.89z"/>
	<path d="M242.12,401.76c-0.21-2.74-0.59-5.48-0.52-8.21c0.02-0.63,1.58-1.74,2.38-1.69c0.77,0.04,2.14,1.36,2.08,1.99
		c-0.29,2.73-1.02,5.41-1.58,8.11C243.69,401.89,242.9,401.83,242.12,401.76z"/>
	<path d="M214.57,399.87c-0.24-2.51-0.66-5.02-0.6-7.52c0.02-0.64,1.62-1.76,2.42-1.7c0.8,0.05,2.23,1.37,2.16,2.01
		c-0.27,2.49-1.03,4.93-1.61,7.39C216.16,399.99,215.36,399.93,214.57,399.87z"/>
	<path d="M215.48,525.32c1.71-1.54,2.58-2.33,3.46-3.12c1.09,1.17,2.17,2.33,3.26,3.5c-0.93,0.75-1.87,2.11-2.8,2.1
		C218.35,527.79,217.32,526.55,215.48,525.32z"/>
	<path d="M300.42,487.03c-0.51,1.96-1.03,3.92-1.53,5.85c-4.05-1.48-6.08-3.57-4.62-5.18c1.19-1.32,3.73-1.5,5.68-2.18
		C300.1,486.03,300.26,486.53,300.42,487.03z"/>
	<path d="M376.91,484.97c0,1.16,0.25,2.86-0.09,4.44c-0.23,1.08-1.44,2.91-1.89,2.82c-1.3-0.25-3.09-1.09-3.42-2.1
		c-0.3-0.91,0.82-2.58,1.77-3.47C374.2,485.8,375.68,485.51,376.91,484.97z"/>
	<path d="M277.64,377.27c1.9-1.25,3.15-2.59,3.78-2.36c0.97,0.36,2.09,1.81,2.06,2.78c-0.03,0.93-1.42,1.83-2.21,2.74
		C280.31,379.6,279.35,378.76,277.64,377.27z"/>
	<path d="M318.88,567.83c-3.83,0-7.65,0-11.48,0c0-0.31,0-0.62-0.01-0.92c3.83,0,7.66,0,11.49,0
		C318.89,567.22,318.89,567.52,318.88,567.83z"/>
	<path d="M313.49,491.63c-0.29-1.22-0.58-2.44-0.87-3.67c-0.33-0.06-0.67-0.12-1-0.18c-0.45,1.23-0.89,2.45-1.48,4.08
		c-0.35-1.41-0.64-2.54-0.92-3.67c-0.3-0.08-0.6-0.16-0.9-0.24c-0.54,1.18-1.08,2.35-1.85,4.02c-0.24-2.17-0.42-3.86-0.64-5.82
		c2.73-0.13,5.22-0.26,8.04-0.4c0.18,2.18,0.33,3.99,0.49,5.8C314.07,491.59,313.78,491.61,313.49,491.63z"/>
	<path d="M236.17,492.82c-1.46-1.77-2.25-2.72-3.04-3.67c1.53-1.09,2.99-2.31,4.65-3.16c0.31-0.16,2.18,1.58,2.07,1.77
		C238.98,489.3,237.8,490.68,236.17,492.82z"/>
	<path d="M214.16,407.07c-1.74,0.16-3.48,0.49-5.21,0.42c-0.71-0.03-2.03-1.07-1.95-1.39c0.22-0.92,1.16-2.49,1.57-2.42
		c2.03,0.35,3.99,1.14,5.97,1.78C214.41,405.99,214.28,406.53,214.16,407.07z"/>
	<path d="M350.16,486.57c0.25,1.89,0.47,3.5,0.69,5.12c-0.26,0.38-0.51,0.77-0.77,1.15c-1.46-0.8-3.8-1.31-4.21-2.46
		C344.88,487.58,346.81,486.44,350.16,486.57z"/>
	<path d="M361.44,485.92c0.25,2.59,0.41,4.31,0.65,6.85c-2.01-0.58-3.73-0.7-4.82-1.56c-0.58-0.46-0.54-2.57,0.06-3.3
		C358.09,486.99,359.69,486.71,361.44,485.92z"/>
	<path d="M273.53,487.54c-1.17,1.04-2.35,2.08-3.88,3.43c1.36,0.12,2.34,0.21,3.36,0.31c-0.19,0.34-0.37,0.75-0.42,0.74
		c-1.48-0.41-3.48-0.45-4.24-1.42c-0.7-0.88-0.61-3.43,0.15-4.05c1.03-0.83,3.04-0.52,4.64-0.7
		C273.25,486.42,273.39,486.98,273.53,487.54z"/>
	<path d="M153.1,331.61c-2.28,4.22-4.56,8.43-6.84,12.65c-0.38-0.17-0.76-0.34-1.13-0.51c2.02-4.34,4.04-8.69,6.06-13.03
		C151.82,331.02,152.46,331.31,153.1,331.61z"/>
	<path d="M192.46,286.2c4.37-2.3,8.74-4.6,13.1-6.9c0.31,0.57,0.62,1.14,0.94,1.71c-4.4,2.24-8.8,4.49-13.2,6.73
		C193.02,287.22,192.74,286.71,192.46,286.2z"/>
	<path d="M218.44,460.33c0.17-1.6,0.17-3.25,0.68-4.74c0.1-0.29,2.24,0.09,3.44,0.16c-0.57,1.65-1.14,3.31-1.72,4.96
		C220.04,460.58,219.24,460.45,218.44,460.33z"/>
	<path d="M422.62,486.65c0.35,1.77,0.66,3.35,0.97,4.93c-0.22,0.05-0.44,0.11-0.66,0.16c-0.52-1.44-1.04-2.88-1.56-4.32
		c-0.28,0-0.57-0.01-0.85-0.01c-0.27,1.34-0.53,2.68-0.94,4.76c-0.66-1.93-1.11-3.25-1.84-5.4c-0.78,1.96-1.28,3.2-2.2,5.51
		c0-2.58,0-4.01,0-5.62C417.84,486.65,419.96,486.65,422.62,486.65z"/>
	<path d="M196.17,480.68c-1.28-1.51-2.73-2.49-2.72-3.44c0.01-0.85,1.65-1.67,2.58-2.5c0.92,0.97,2.18,1.82,2.62,2.96
		C198.84,478.19,197.36,479.3,196.17,480.68z"/>
	<path d="M264.26,455.19c-0.99,1.56-1.99,3.12-2.98,4.68c-0.36-0.17-0.72-0.34-1.08-0.5c0.31-1.49,0.61-2.99,0.92-4.48
		c-0.3-0.14-0.61-0.28-0.91-0.42c-0.77,1.47-1.55,2.93-2.32,4.4c-0.24,0-0.48,0-0.72,0c0-1.18-0.41-3.17,0.07-3.41
		c1.87-0.9,4.02-1.24,6.07-1.79C263.62,454.18,263.94,454.68,264.26,455.19z"/>
	<path d="M343.28,487.96c-1.16,0.88-2.31,1.76-3.97,3.01c1.64,0.22,2.72,0.37,3.79,0.52c0,0.24,0,0.47-0.01,0.71
		c-1.14,0-2.82,0.45-3.32-0.1c-0.86-0.95-1.72-2.97-1.24-3.74c0.69-1.1,2.6-1.48,3.99-2.16
		C342.79,486.78,343.04,487.37,343.28,487.96z"/>
	<path d="M444.45,487.77c-1.16,0.98-2.31,1.96-3.83,3.24c1.4,0.25,2.43,0.44,3.46,0.63c-0.09,0.32-0.18,0.64-0.27,0.96
		c-1.43-0.45-3.13-0.6-4.17-1.48c-0.54-0.46-0.31-2.6,0.34-3.31c0.83-0.88,2.44-1.07,3.72-1.56
		C443.96,486.77,444.21,487.27,444.45,487.77z"/>
	<path d="M387.91,492.29c-0.6-1.93-0.98-3.17-1.36-4.4c-0.32-0.05-0.65-0.09-0.97-0.14c-0.44,1.21-0.88,2.43-1.6,4.42
		c0-2.16,0-3.56,0-4.99c6.63-1.81,7.64-1.26,7.46,5.01c-0.42-1.46-0.55-2.14-0.82-2.76c-0.31-0.72-0.75-1.38-2.08-2.06
		C388.37,488.72,388.19,490.07,387.91,492.29z"/>
	<path d="M287.89,491.29c-0.38-1.95-0.64-3.28-0.89-4.59c5.33-2.05,5.7-1.71,5.12,5.53c-0.5-2.04-0.78-3.2-1.35-5.55
		C289.51,488.7,288.81,489.82,287.89,491.29z"/>
	<path d="M265.34,489.86c-1.03-0.56-2.08-1.07-3.07-1.68c-1.03-0.64-2-1.37-3-2.06c0.99-0.8,1.91-1.73,3.01-2.33
		c0.58-0.32,1.49-0.06,2.45,0.6c-1.02,0.37-2.04,0.75-3.23,1.18c1.62,1.26,3.06,2.38,4.49,3.5
		C265.78,489.33,265.56,489.59,265.34,489.86z"/>
	<path d="M329.12,491.31c-0.85-0.6-1.62-1.14-2.48-1.74c-0.47,0.86-0.87,1.57-1.73,3.14c0-3.5,0-6,0-8.5
		c0.24-0.04,0.49-0.08,0.73-0.11c0.21,1.28,0.43,2.56,0.68,4.06c0.9-0.52,1.57-0.9,2.18-1.25
		C328.7,488.35,328.9,489.75,329.12,491.31z"/>
	<path d="M264.98,392.81c0.28-1.45,0.55-2.9,0.83-4.35c0.62,0.15,1.79,0.4,1.78,0.45c-0.24,1.41-0.6,2.81-0.94,4.2
		C266.09,393.01,265.53,392.91,264.98,392.81z"/>
	<path class="st0" d="M314.73,253.87c1.88,2.8,3.16,4.7,4.74,7.07c-3.48,0-6.23,0-10.41,0
		C311.23,258.24,312.74,256.35,314.73,253.87z"/>
	<path class="st0" d="M295.01,261.69c-3.8,0.7-6.89,1.27-10.5,1.93c1.2-2.58,2.16-4.63,3.3-7.08
		C290.03,258.13,292.06,259.58,295.01,261.69z"/>
	<path class="st0" d="M334.44,261.77c2.88-1.88,4.81-3.14,6.96-4.54c1.08,1.82,2.22,3.76,3.75,6.36
		C341.48,262.97,338.42,262.45,334.44,261.77z"/>
	<path class="st0" d="M285.01,360.76c1.45,3.53-1.04,4.21-3.88,4.21c-10.06-0.01-20.13,0.1-30.18-0.31
		c-12.2-0.49-24.39-1.43-36.57-2.22c-4.43-0.29-8.84-0.72-13.27-1.68C229.04,360.76,256.97,360.76,285.01,360.76z"/>
	<path class="st0" d="M278.21,320.45c-1.34,4.14-2.63,8.3-4.04,12.41c-1.86,5.4-3.76,10.79-5.77,16.14
		c-0.46,1.22-1.43,3.25-2.11,3.23c-4.28-0.14-8.42,0.08-12.53,1.43c-0.54,0.18-2.49-1.69-2.37-1.94c0.73-1.46,1.64-3.48,2.95-3.88
		c2.08-0.63,4.58-0.41,6.81-0.04c3.27,0.55,4.57-0.86,5.53-3.65c2.46-7.12,5.16-14.16,7.83-21.21c0.43-1.14,1.17-2.16,1.76-3.24
		C276.92,319.96,277.57,320.21,278.21,320.45z"/>
	<path class="st0" d="M259.9,327.03c1.81-6.07,4.06-7.51,9.36-5.98c0.93,0.27,1.99,1.93,1.99,2.95c0.01,1.01-1.16,2.8-1.97,2.89
		C266.25,327.24,263.15,327.03,259.9,327.03z"/>
	<path class="st0" d="M254.05,341.1c1.52-2.96,2.39-4.64,3.68-7.14c1.93,0.45,4.34,0.77,6.45,1.71c0.5,0.22,0.32,3.61-0.05,3.7
		C261.13,340.15,258.01,340.49,254.05,341.1z"/>
	<path class="st0" d="M292.04,432.8c-4.63-2.81-6.48-7.46-4.91-12.3c0.43-1.33,0.8-2.68,1.2-4.01c1.54-5.04,3.97-7.05,8.94-7.37
		c4.79-0.31,8.72,1.93,10.8,6.11c2.45,4.95,2.16,9.81-0.02,14.83C300.27,425.54,293.86,426.74,292.04,432.8z M299.1,420.8
		c0,0.01,0,0.02,0,0.03c0.86,0,1.71-0.01,2.57,0c2.16,0.02,4.26,0.4,4.28-2.96c0.02-3.23-1.83-3.19-4.13-3.11
		c-2.14,0.07-4.38-0.31-6.39,0.19c-1.14,0.29-2.47,1.88-2.65,3.04c-0.13,0.79,1.41,2.22,2.51,2.7
		C296.36,421.17,297.82,420.8,299.1,420.8z"/>
	<path class="st0" d="M392.45,424.59c1.2-5.52,3.31-7.18,8.05-6.9c4.07,0.24,6.24,2.41,6.6,6.9
		C402.31,424.59,397.54,424.59,392.45,424.59z"/>
	<path class="st0" d="M432.4,427.76c2.22,0.23,5.33-0.45,5.06,3.61c-0.21,3.11-3.43,5.35-7.62,5.19c-2.88-0.11-5.14-1-5.08-4.34
		C424.82,429.07,427.2,427.65,432.4,427.76z"/>
	<path class="st0" d="M328.22,463.4c-0.08,4.44-3.27,7.98-7.14,7.92c-4.09-0.06-8.13-4.28-7.92-8.28c0.2-3.81,4.39-7.75,8.18-7.7
		C325.22,455.38,328.3,459,328.22,463.4z"/>
	<path class="st0" d="M378.78,462.27c0.69-4.92,3.59-7.66,7.42-7.47c3.79,0.19,6.51,2.94,6.87,7.12c-0.51,0.11-1.03,0.33-1.56,0.33
		C387.37,462.28,383.25,462.27,378.78,462.27z"/>
	<path class="st0" d="M333.05,384.94c0.82-4.49,3.6-7.14,7.18-7.14c3.53-0.01,6.46,2.72,7.34,7.14
		C342.78,384.94,338.07,384.94,333.05,384.94z"/>
	<path d="M299.1,420.8c-1.29,0-2.74,0.37-3.81-0.1c-1.1-0.49-2.64-1.91-2.51-2.7c0.18-1.16,1.51-2.75,2.65-3.04
		c2.01-0.51,4.25-0.12,6.39-0.19c2.3-0.08,4.15-0.11,4.13,3.11c-0.02,3.36-2.13,2.98-4.28,2.96c-0.86-0.01-1.71,0-2.57,0
		C299.1,420.83,299.1,420.81,299.1,420.8z"/>
</g>
</svg>
